<svg xmlns="http://www.w3.org/2000/svg" xmlns:xlink="http://www.w3.org/1999/xlink" width="480" zoomAndPan="magnify" viewBox="0 0 360 503.999982" height="672" preserveAspectRatio="xMidYMid meet" version="1.0"><defs><clipPath id="17893326e1"><path d="M 134 11 L 217 11 L 217 155 L 134 155 Z M 134 11 " clip-rule="nonzero"/></clipPath><clipPath id="5355bd3904"><path d="M 111.011719 23.238281 L 224.195312 0.222656 L 322.242188 482.355469 L 209.058594 505.371094 Z M 111.011719 23.238281 " clip-rule="nonzero"/></clipPath><clipPath id="596857189b"><path d="M 224.265625 0.207031 L 111.082031 23.226562 L 209.125 505.355469 L 322.308594 482.339844 Z M 224.265625 0.207031 " clip-rule="nonzero"/></clipPath><clipPath id="f64694deb8"><path d="M 224.265625 0.207031 L 111.082031 23.226562 L 209.125 505.355469 L 322.308594 482.339844 Z M 224.265625 0.207031 " clip-rule="nonzero"/></clipPath><clipPath id="78bf32edde"><path d="M 209.394531 3.234375 L 111.277344 23.183594 L 138.800781 158.539062 L 236.917969 138.585938 Z M 209.394531 3.234375 " clip-rule="nonzero"/></clipPath><clipPath id="e8a892dd03"><path d="M 151 32 L 193 32 L 193 136 L 151 136 Z M 151 32 " clip-rule="nonzero"/></clipPath><clipPath id="59bf13c863"><path d="M 111.011719 23.238281 L 224.195312 0.222656 L 322.242188 482.355469 L 209.058594 505.371094 Z M 111.011719 23.238281 " clip-rule="nonzero"/></clipPath><clipPath id="8dcb7b831e"><path d="M 224.265625 0.207031 L 111.082031 23.226562 L 209.125 505.355469 L 322.308594 482.339844 Z M 224.265625 0.207031 " clip-rule="nonzero"/></clipPath><clipPath id="edc3aee3ff"><path d="M 224.265625 0.207031 L 111.082031 23.226562 L 209.125 505.355469 L 322.308594 482.339844 Z M 224.265625 0.207031 " clip-rule="nonzero"/></clipPath><clipPath id="cc05d680de"><path d="M 153 77 L 307 77 L 307 490 L 153 490 Z M 153 77 " clip-rule="nonzero"/></clipPath><clipPath id="56f2cb8d4d"><path d="M 111.011719 23.238281 L 224.195312 0.222656 L 322.242188 482.355469 L 209.058594 505.371094 Z M 111.011719 23.238281 " clip-rule="nonzero"/></clipPath><clipPath id="6941203e5c"><path d="M 224.265625 0.207031 L 111.082031 23.226562 L 209.125 505.355469 L 322.308594 482.339844 Z M 224.265625 0.207031 " clip-rule="nonzero"/></clipPath><clipPath id="3f33743a6d"><path d="M 224.265625 0.207031 L 111.082031 23.226562 L 209.125 505.355469 L 322.308594 482.339844 Z M 224.265625 0.207031 " clip-rule="nonzero"/></clipPath><clipPath id="938d5a7754"><path d="M 237.722656 67.398438 L 139.1875 87.4375 L 223.578125 502.40625 L 322.109375 482.371094 Z M 237.722656 67.398438 " clip-rule="nonzero"/></clipPath><clipPath id="e19db8d6d7"><path d="M 167 121 L 226 121 L 226 233 L 167 233 Z M 167 121 " clip-rule="nonzero"/></clipPath><clipPath id="2a5c398562"><path d="M 111.011719 23.238281 L 224.195312 0.222656 L 322.242188 482.355469 L 209.058594 505.371094 Z M 111.011719 23.238281 " clip-rule="nonzero"/></clipPath><clipPath id="f8558ef757"><path d="M 224.265625 0.207031 L 111.082031 23.226562 L 209.125 505.355469 L 322.308594 482.339844 Z M 224.265625 0.207031 " clip-rule="nonzero"/></clipPath><clipPath id="81dd794a6d"><path d="M 224.265625 0.207031 L 111.082031 23.226562 L 209.125 505.355469 L 322.308594 482.339844 Z M 224.265625 0.207031 " clip-rule="nonzero"/></clipPath></defs><g clip-path="url(#17893326e1)"><g clip-path="url(#5355bd3904)"><g clip-path="url(#596857189b)"><g clip-path="url(#f64694deb8)"><g clip-path="url(#78bf32edde)"><path fill="#e6b366" d="M 134.921875 136.011719 C 135.257812 135.089844 135.804688 134.246094 136.375 133.441406 C 136.515625 133.226562 136.671875 133.023438 136.726562 132.769531 C 137.0625 131.347656 135.476562 130.269531 136.367188 128.679688 C 136.980469 127.570312 138.328125 127.003906 139.464844 126.640625 C 142.023438 125.820312 144.851562 125.699219 147.515625 125.757812 C 149.195312 125.789062 150.847656 125.910156 152.289062 126.042969 C 150.871094 125.480469 149.300781 124.816406 147.71875 124.078125 C 141.097656 120.972656 137.496094 118.03125 137.023438 115.332031 C 136.671875 113.273438 138.101562 112.042969 140.007812 111.703125 C 140.980469 111.53125 141.972656 111.585938 142.953125 111.675781 C 143.210938 111.699219 143.476562 111.722656 143.71875 111.648438 C 145.117188 111.21875 145.25 109.316406 147.074219 109.289062 C 148.34375 109.269531 149.5 110.152344 150.390625 110.960938 C 152.378906 112.769531 153.894531 115.15625 155.179688 117.492188 C 155.992188 118.972656 156.710938 120.457031 157.320312 121.777344 C 157.101562 120.261719 156.890625 118.574219 156.734375 116.832031 C 156.109375 109.542969 156.851562 104.953125 158.953125 103.191406 C 160.558594 101.855469 162.332031 102.480469 163.585938 103.96875 C 164.21875 104.722656 164.667969 105.609375 165.082031 106.503906 C 165.191406 106.738281 165.300781 106.980469 165.492188 107.15625 C 166.558594 108.152344 168.269531 107.316406 169.207031 108.882812 C 169.859375 109.976562 169.675781 111.417969 169.421875 112.59375 C 168.847656 115.21875 167.542969 117.730469 166.167969 120.011719 C 165.289062 121.453125 164.371094 122.820312 163.527344 124.007812 C 164.730469 123.054688 166.085938 122.023438 167.515625 121.035156 C 173.511719 116.839844 177.855469 115.191406 180.429688 116.136719 C 182.390625 116.859375 182.734375 118.703125 182.074219 120.53125 C 181.742188 121.464844 181.195312 122.296875 180.625 123.101562 C 180.480469 123.316406 180.324219 123.53125 180.265625 123.785156 C 179.941406 125.207031 181.523438 126.273438 180.632812 127.863281 C 180.019531 128.980469 178.675781 129.539062 177.527344 129.902344 C 174.972656 130.71875 172.148438 130.84375 169.484375 130.785156 C 167.796875 130.746094 166.15625 130.632812 164.707031 130.5 C 166.132812 131.0625 167.699219 131.726562 169.277344 132.464844 C 175.90625 135.574219 179.5 138.515625 179.972656 141.21875 C 180.328125 143.277344 178.902344 144.496094 176.988281 144.839844 C 176.023438 145.015625 175.023438 144.957031 174.046875 144.871094 C 173.789062 144.847656 173.527344 144.824219 173.277344 144.894531 C 171.882812 145.320312 171.746094 147.226562 169.921875 147.25 C 168.65625 147.277344 167.5 146.398438 166.609375 145.585938 C 164.625 143.78125 163.101562 141.390625 161.820312 139.050781 C 161.007812 137.578125 160.285156 136.085938 159.679688 134.769531 C 159.902344 136.285156 160.113281 137.96875 160.261719 139.707031 C 160.890625 147 160.144531 151.597656 158.042969 153.359375 C 156.441406 154.6875 154.667969 154.066406 153.417969 152.582031 C 152.78125 151.828125 152.332031 150.9375 151.914062 150.039062 C 151.808594 149.808594 151.699219 149.566406 151.511719 149.386719 C 150.441406 148.390625 148.726562 149.222656 147.789062 147.664062 C 147.140625 146.574219 147.320312 145.125 147.578125 143.949219 C 148.148438 141.328125 149.453125 138.8125 150.835938 136.53125 C 151.707031 135.097656 152.628906 133.722656 153.472656 132.542969 C 152.269531 133.488281 150.914062 134.519531 149.484375 135.519531 C 143.492188 139.710938 139.140625 141.359375 136.566406 140.40625 C 134.609375 139.691406 134.265625 137.835938 134.921875 136.011719 Z M 168.707031 68.695312 C 172.074219 67.925781 175.542969 63.191406 179.007812 54.632812 C 179.835938 52.589844 180.5625 50.570312 181.179688 48.738281 C 181.105469 50.570312 181.066406 52.65625 181.136719 54.777344 C 181.242188 58.144531 181.585938 61.703125 182.789062 64.871094 C 183.324219 66.289062 184.121094 67.945312 185.558594 68.652344 C 187.625 69.667969 188.867188 67.605469 190.679688 67.917969 C 191 67.972656 191.285156 68.15625 191.558594 68.328125 C 192.609375 68.992188 193.699219 69.625 194.890625 69.988281 C 197.230469 70.695312 199.542969 70.136719 200.3125 67.621094 C 201.328125 64.308594 198.964844 58.9375 193.292969 51.648438 C 191.9375 49.917969 190.554688 48.273438 189.277344 46.824219 C 190.828125 47.804688 192.609375 48.875 194.484375 49.878906 C 197.445312 51.472656 200.695312 52.953125 204.039062 53.5 C 205.539062 53.746094 207.367188 53.882812 208.699219 52.988281 C 210.605469 51.703125 209.441406 49.597656 210.621094 48.183594 C 210.828125 47.933594 211.128906 47.777344 211.414062 47.625 C 212.515625 47.046875 213.605469 46.417969 214.511719 45.570312 C 216.296875 43.894531 216.96875 41.613281 215.175781 39.679688 C 212.824219 37.144531 206.992188 36.503906 197.851562 37.78125 C 195.671875 38.085938 193.5625 38.464844 191.667969 38.84375 C 193.289062 37.992188 195.109375 36.980469 196.910156 35.859375 C 199.773438 34.085938 202.679688 32.011719 204.820312 29.386719 C 205.78125 28.210938 206.8125 26.695312 206.707031 25.097656 C 206.546875 22.796875 204.144531 22.75 203.511719 21.023438 C 203.398438 20.71875 203.410156 20.382812 203.425781 20.054688 C 203.46875 18.8125 203.476562 17.554688 203.195312 16.339844 C 202.636719 13.957031 200.996094 12.234375 198.425781 12.820312 C 195.058594 13.589844 191.59375 18.324219 188.128906 26.886719 C 187.304688 28.929688 186.574219 30.945312 185.957031 32.78125 C 186.035156 30.945312 186.066406 28.863281 186 26.738281 C 185.890625 23.375 185.546875 19.816406 184.351562 16.648438 C 183.808594 15.226562 183.015625 13.574219 181.578125 12.867188 C 179.511719 11.851562 178.265625 13.914062 176.457031 13.597656 C 176.132812 13.542969 175.851562 13.359375 175.574219 13.1875 C 174.523438 12.527344 173.4375 11.894531 172.25 11.535156 C 169.902344 10.824219 167.59375 11.382812 166.820312 13.902344 C 165.804688 17.207031 168.167969 22.578125 173.84375 29.863281 C 175.195312 31.605469 176.582031 33.242188 177.859375 34.695312 C 176.308594 33.710938 174.523438 32.640625 172.652344 31.636719 C 169.683594 30.042969 166.4375 28.5625 163.09375 28.015625 C 161.59375 27.773438 159.765625 27.636719 158.4375 28.527344 C 156.527344 29.8125 157.691406 31.921875 156.511719 33.332031 C 156.304688 33.585938 156.007812 33.738281 155.71875 33.890625 C 154.621094 34.46875 153.527344 35.097656 152.621094 35.949219 C 150.835938 37.625 150.164062 39.902344 151.957031 41.835938 C 154.316406 44.375 160.140625 45.011719 169.285156 43.738281 C 171.460938 43.433594 173.578125 43.054688 175.46875 42.675781 C 173.84375 43.527344 172.027344 44.539062 170.21875 45.65625 C 167.363281 47.433594 164.457031 49.503906 162.3125 52.128906 C 161.355469 53.304688 160.320312 54.820312 160.425781 56.421875 C 160.585938 58.71875 162.992188 58.765625 163.625 60.496094 C 163.734375 60.800781 163.722656 61.136719 163.707031 61.460938 C 163.660156 62.703125 163.660156 63.964844 163.941406 65.171875 C 164.5 67.5625 166.140625 69.285156 168.707031 68.695312 " fill-opacity="1" fill-rule="nonzero"/></g></g></g></g></g><g clip-path="url(#e8a892dd03)"><g clip-path="url(#59bf13c863)"><g clip-path="url(#8dcb7b831e)"><g clip-path="url(#edc3aee3ff)"><path fill="#7c484e" d="M 153.15625 124.171875 C 155.417969 121.222656 159.644531 120.667969 162.59375 122.933594 C 165.542969 125.195312 166.101562 129.417969 163.839844 132.371094 C 161.578125 135.320312 157.355469 135.875 154.40625 133.609375 C 151.457031 131.347656 150.902344 127.125 153.15625 124.171875 Z M 176.566406 35.949219 C 173.910156 39.816406 174.898438 45.109375 178.765625 47.765625 C 182.628906 50.421875 187.917969 49.4375 190.566406 45.566406 C 193.222656 41.699219 192.234375 36.410156 188.371094 33.753906 C 184.503906 31.09375 179.21875 32.078125 176.566406 35.949219 " fill-opacity="1" fill-rule="nonzero"/></g></g></g></g><g clip-path="url(#cc05d680de)"><g clip-path="url(#56f2cb8d4d)"><g clip-path="url(#6941203e5c)"><g clip-path="url(#3f33743a6d)"><g clip-path="url(#938d5a7754)"><path fill="#466f4f" d="M 236.085938 366.539062 C 237.59375 366.933594 239.105469 367.324219 240.613281 367.703125 C 240.328125 366.734375 240.046875 365.765625 239.761719 364.796875 C 239.707031 364.601562 239.648438 364.40625 239.59375 364.207031 C 239.476562 363.804688 239.8125 363.367188 240.199219 363.289062 C 240.640625 363.199219 240.996094 363.484375 241.121094 363.898438 C 241.519531 365.28125 241.925781 366.671875 242.332031 368.054688 C 242.363281 368.15625 242.394531 368.273438 242.429688 368.386719 C 244.796875 370.601562 247.171875 372.816406 249.542969 375.035156 C 251.300781 376.6875 253.066406 378.339844 254.824219 379.980469 C 254.050781 377.296875 253.109375 374.648438 252.125 372.039062 C 251.789062 371.148438 253.121094 370.460938 253.464844 371.363281 C 254.761719 374.816406 256.003906 378.34375 256.894531 381.921875 C 258.28125 383.222656 259.664062 384.515625 261.050781 385.804688 C 261.929688 386.632812 262.808594 387.460938 263.6875 388.273438 C 264.421875 388.96875 263.253906 390 262.527344 389.320312 C 260.265625 387.199219 258.003906 385.082031 255.742188 382.964844 C 251.953125 381.648438 248.167969 380.328125 244.378906 379.011719 C 243.832031 378.828125 243.28125 378.636719 242.738281 378.449219 C 241.824219 378.132812 242.304688 376.703125 243.21875 377.019531 C 246.496094 378.167969 249.765625 379.304688 253.042969 380.441406 C 249.960938 377.5625 246.878906 374.667969 243.796875 371.789062 C 242.984375 371.027344 242.171875 370.261719 241.355469 369.5 C 239.679688 369.074219 238 368.640625 236.320312 368.207031 C 236.078125 368.148438 235.828125 368.078125 235.582031 368.019531 C 235.171875 367.90625 234.96875 367.398438 235.09375 367.023438 C 235.238281 366.601562 235.675781 366.4375 236.085938 366.539062 Z M 215.46875 295.984375 C 216.980469 296.375 218.488281 296.769531 220 297.148438 C 219.714844 296.179688 219.433594 295.210938 219.148438 294.242188 C 219.089844 294.046875 219.03125 293.847656 218.976562 293.652344 C 218.859375 293.25 219.195312 292.8125 219.582031 292.734375 C 220.023438 292.640625 220.382812 292.941406 220.503906 293.34375 C 220.902344 294.726562 221.3125 296.117188 221.714844 297.5 C 221.746094 297.601562 221.78125 297.714844 221.808594 297.820312 C 224.183594 300.046875 226.554688 302.261719 228.925781 304.480469 C 230.691406 306.132812 232.449219 307.785156 234.210938 309.4375 C 233.433594 306.742188 232.492188 304.09375 231.511719 301.496094 C 231.175781 300.589844 232.507812 299.90625 232.847656 300.808594 C 234.148438 304.257812 235.390625 307.785156 236.277344 311.363281 C 237.664062 312.667969 239.046875 313.960938 240.433594 315.25 C 241.3125 316.078125 242.191406 316.902344 243.070312 317.71875 C 243.804688 318.410156 242.636719 319.445312 241.910156 318.765625 C 239.652344 316.644531 237.390625 314.527344 235.125 312.40625 C 231.335938 311.089844 227.550781 309.773438 223.761719 308.457031 C 223.214844 308.273438 222.664062 308.078125 222.121094 307.894531 C 221.207031 307.578125 221.6875 306.148438 222.601562 306.464844 C 225.878906 307.613281 229.15625 308.75 232.425781 309.886719 C 229.347656 307.003906 226.261719 304.113281 223.183594 301.234375 C 222.367188 300.46875 221.554688 299.707031 220.738281 298.945312 C 219.0625 298.519531 217.386719 298.085938 215.710938 297.648438 C 215.460938 297.589844 215.214844 297.523438 214.96875 297.460938 C 214.554688 297.347656 214.351562 296.84375 214.480469 296.46875 C 214.625 296.046875 215.058594 295.882812 215.46875 295.984375 Z M 164.929688 200.535156 C 164.925781 200.023438 164.917969 199.523438 164.90625 199.023438 C 164.902344 198.628906 165.128906 198.257812 165.507812 198.046875 C 165.859375 197.855469 166.253906 197.863281 166.558594 198.0625 C 168.496094 199.332031 180.414062 208.414062 183.59375 211.863281 C 188.140625 216.796875 193.988281 224.621094 192.269531 235.480469 C 192.230469 235.730469 192.171875 235.960938 192.097656 236.183594 C 191.847656 236.902344 191.402344 237.460938 190.765625 237.832031 C 188.921875 238.914062 186.101562 238.101562 183.855469 237.269531 L 183.6875 237.203125 C 180.476562 236.03125 178.179688 234.171875 175.722656 231.742188 C 171.488281 227.546875 168.464844 222.65625 166.742188 217.203125 C 166.609375 216.78125 166.480469 216.339844 166.359375 215.894531 L 166.363281 215.890625 C 165.089844 211.082031 165.011719 205.722656 164.929688 200.535156 Z M 218.347656 165.035156 C 218.117188 165.214844 217.878906 165.359375 217.640625 165.496094 C 216.847656 165.917969 216.011719 166.035156 215.167969 165.84375 C 212.710938 165.296875 210.933594 162.335938 209.664062 159.820312 L 209.570312 159.621094 C 207.742188 156.035156 207.257812 152.59375 207.09375 148.53125 C 206.804688 141.519531 208.121094 134.871094 211.007812 128.789062 C 211.234375 128.316406 211.476562 127.839844 211.730469 127.363281 C 214.496094 122.199219 218.722656 117.515625 222.8125 112.992188 C 223.210938 112.550781 223.605469 112.109375 224.003906 111.667969 C 224.308594 111.320312 224.808594 111.199219 225.296875 111.316406 C 225.757812 111.429688 226.089844 111.746094 226.191406 112.160156 C 226.847656 114.804688 229.832031 132.203125 229.808594 137.738281 C 229.769531 145.632812 228.539062 157.050781 218.347656 165.035156 Z M 177.296875 174.269531 C 182.84375 189.726562 190.089844 204.542969 197.867188 218.992188 C 206.589844 235.203125 216.082031 250.996094 225.734375 266.667969 C 227.101562 268.890625 228.484375 271.101562 229.859375 273.324219 C 237.015625 297.078125 244.257812 320.800781 251.324219 344.570312 C 259.351562 371.554688 267.234375 398.601562 274.113281 425.90625 C 279.261719 446.351562 284.304688 467.15625 286.183594 488.199219 C 286.355469 490.144531 289.3125 489.519531 289.144531 487.597656 C 288.953125 485.515625 288.730469 483.433594 288.472656 481.355469 C 285.761719 459.398438 280.351562 437.746094 274.777344 416.371094 C 267.515625 388.511719 259.367188 360.898438 251.105469 333.328125 C 246.089844 316.582031 241.015625 299.867188 235.957031 283.140625 C 242.632812 293.835938 249.328125 304.527344 255.921875 315.269531 C 265.59375 331.027344 275.078125 346.929688 283.765625 363.269531 C 287.429688 370.160156 290.953125 377.136719 294.246094 384.214844 C 294.003906 384 293.765625 383.785156 293.527344 383.574219 C 292.175781 382.371094 290.828125 381.171875 289.480469 379.96875 C 288.554688 376.585938 287.304688 373.265625 285.992188 370.027344 C 285.648438 369.179688 284.375 369.820312 284.71875 370.667969 C 285.714844 373.132812 286.671875 375.636719 287.472656 378.171875 C 285.765625 376.648438 284.058594 375.128906 282.347656 373.597656 C 280.039062 371.542969 277.738281 369.488281 275.429688 367.433594 C 275.398438 367.328125 275.367188 367.238281 275.335938 367.132812 C 274.921875 365.832031 274.503906 364.515625 274.089844 363.214844 C 273.964844 362.835938 273.644531 362.550781 273.214844 362.636719 C 272.855469 362.710938 272.515625 363.128906 272.636719 363.507812 C 272.695312 363.695312 272.753906 363.878906 272.8125 364.0625 C 273.109375 364.988281 273.402344 365.910156 273.695312 366.824219 C 272.253906 366.492188 270.820312 366.164062 269.378906 365.832031 C 268.988281 365.738281 268.578125 365.875 268.4375 366.285156 C 268.320312 366.636719 268.507812 367.136719 268.898438 367.230469 C 269.136719 367.28125 269.375 367.339844 269.605469 367.394531 C 271.21875 367.765625 272.828125 368.148438 274.441406 368.519531 C 275.226562 369.222656 276.015625 369.925781 276.804688 370.628906 C 279.800781 373.296875 282.796875 375.976562 285.792969 378.644531 C 282.65625 377.644531 279.527344 376.628906 276.394531 375.628906 C 275.519531 375.347656 275.058594 376.695312 275.933594 376.976562 C 276.464844 377.152344 276.992188 377.320312 277.519531 377.484375 C 281.152344 378.660156 284.785156 379.820312 288.417969 380.984375 C 290.605469 382.941406 292.796875 384.890625 294.984375 386.847656 C 295.160156 387.011719 295.355469 387.058594 295.539062 387.042969 C 298.746094 394.125 301.703125 401.304688 304.273438 408.625 C 304.886719 410.371094 307.441406 409.054688 306.835938 407.332031 C 306.203125 405.535156 305.550781 403.746094 304.878906 401.96875 C 298.90625 386.226562 291.359375 371.109375 283.296875 356.347656 C 281.847656 353.691406 280.367188 351.042969 278.878906 348.398438 C 278.859375 348.214844 278.84375 348.019531 278.824219 347.828125 C 278.675781 346.089844 278.527344 344.335938 278.378906 342.597656 C 280.019531 339.511719 281.386719 336.261719 282.660156 333.007812 C 282.992188 332.152344 281.640625 331.695312 281.308594 332.550781 C 280.339844 335.03125 279.316406 337.511719 278.152344 339.921875 C 277.953125 337.582031 277.753906 335.25 277.550781 332.910156 C 277.292969 329.882812 277.035156 326.851562 276.773438 323.824219 C 276.84375 323.679688 276.917969 323.535156 276.984375 323.386719 C 277.578125 322.152344 278.171875 320.929688 278.765625 319.695312 C 278.941406 319.332031 278.648438 318.875 278.304688 318.761719 C 277.894531 318.613281 277.539062 318.859375 277.363281 319.214844 C 277.277344 319.394531 277.191406 319.578125 277.101562 319.757812 C 276.710938 320.570312 276.320312 321.394531 275.925781 322.207031 C 275.109375 320.984375 274.296875 319.75 273.480469 318.519531 C 273.261719 318.179688 272.878906 317.996094 272.488281 318.195312 C 272.160156 318.359375 271.9375 318.851562 272.160156 319.191406 C 272.296875 319.390625 272.429688 319.59375 272.566406 319.796875 C 273.476562 321.171875 274.394531 322.558594 275.308594 323.9375 C 275.40625 325.054688 275.496094 326.160156 275.59375 327.265625 C 275.929688 331.207031 276.269531 335.160156 276.605469 339.113281 C 275.019531 336.222656 273.4375 333.34375 271.851562 330.464844 C 271.40625 329.65625 270.136719 330.300781 270.582031 331.105469 C 270.851562 331.597656 271.117188 332.089844 271.386719 332.570312 C 273.226562 335.921875 275.066406 339.261719 276.90625 342.601562 C 276.984375 343.515625 277.0625 344.425781 277.140625 345.328125 C 270.023438 332.847656 262.566406 320.5625 255.015625 308.339844 C 247.644531 296.410156 240.183594 284.554688 232.792969 272.640625 C 230.023438 263.445312 227.261719 254.25 224.535156 245.046875 C 223.386719 241.160156 222.246094 237.273438 221.105469 233.398438 C 221.292969 232.519531 221.480469 231.640625 221.667969 230.757812 C 222.195312 228.324219 222.714844 225.902344 223.234375 223.46875 C 226.492188 220.175781 229.453125 216.546875 232.292969 212.898438 C 233.050781 211.925781 231.457031 210.882812 230.699219 211.84375 C 228.566406 214.59375 226.363281 217.328125 224.003906 219.90625 C 224.667969 216.820312 225.332031 213.734375 226 210.660156 C 226.894531 206.476562 227.792969 202.308594 228.6875 198.136719 C 230 196.699219 231.308594 195.265625 232.621094 193.832031 C 232.980469 193.429688 233.082031 192.863281 232.695312 192.425781 C 232.363281 192.058594 231.65625 191.949219 231.300781 192.351562 L 228.285156 195.652344 C 227.769531 193.648438 227.25 191.632812 226.738281 189.628906 C 226.601562 189.109375 226.117188 188.738281 225.566406 188.851562 C 225.0625 188.953125 224.660156 189.503906 224.796875 190.023438 C 224.878906 190.355469 224.964844 190.679688 225.046875 191.011719 C 225.625 193.242188 226.199219 195.476562 226.769531 197.695312 C 226.464844 199.125 226.15625 200.554688 225.851562 201.980469 C 224.703125 207.304688 223.554688 212.632812 222.414062 217.957031 C 221.617188 213.472656 220.816406 208.980469 220.019531 204.5 C 219.800781 203.289062 217.9375 203.679688 218.152344 204.878906 C 218.285156 205.648438 218.417969 206.410156 218.558594 207.179688 C 219.488281 212.410156 220.421875 217.648438 221.351562 222.878906 L 219.945312 229.425781 C 213.644531 207.871094 207.566406 186.238281 202.183594 164.433594 C 197.359375 144.894531 192.601562 124.9375 191.054688 104.800781 L 191.394531 104.792969 C 191.664062 103.34375 203.796875 77.144531 203.796875 77.144531 C 203.796875 77.144531 193.15625 77.96875 188.601562 87.8125 C 188.238281 88.597656 187.957031 89.363281 187.738281 90.113281 C 187.328125 89.453125 186.855469 88.789062 186.289062 88.128906 C 179.246094 79.882812 168.777344 81.953125 168.777344 81.953125 C 168.777344 81.953125 187.261719 103.539062 187.914062 104.863281 L 188.050781 104.859375 C 188.183594 106.636719 188.34375 108.414062 188.53125 110.179688 C 190.855469 131.695312 196.078125 152.933594 201.441406 173.847656 C 208.53125 201.503906 216.570312 228.910156 224.730469 256.261719 C 225.378906 258.414062 226.03125 260.566406 226.671875 262.71875 C 226.070312 261.738281 225.464844 260.757812 224.863281 259.773438 C 215.378906 244.265625 206.109375 228.613281 197.667969 212.507812 C 190.921875 199.621094 184.636719 186.390625 179.769531 172.660156 L 180.171875 172.546875 C 180.078125 171.15625 185.121094 144.179688 185.121094 144.179688 C 185.121094 144.179688 175.515625 147.433594 173.625 157.566406 C 173.46875 158.371094 173.394531 159.140625 173.371094 159.890625 C 172.835938 159.375 172.246094 158.871094 171.566406 158.398438 C 163.148438 152.453125 153.996094 156.8125 153.996094 156.8125 C 153.996094 156.8125 176.074219 172.363281 176.980469 173.425781 L 177.011719 173.417969 C 177.109375 173.703125 177.199219 173.992188 177.296875 174.269531 " fill-opacity="1" fill-rule="nonzero"/></g></g></g></g></g><g clip-path="url(#e19db8d6d7)"><g clip-path="url(#2a5c398562)"><g clip-path="url(#f8558ef757)"><g clip-path="url(#81dd794a6d)"><path fill="#71a674" d="M 167.488281 208.132812 C 167.699219 207.808594 168.089844 207.785156 168.402344 207.949219 C 169.578125 208.5625 170.746094 209.175781 171.914062 209.78125 C 171.871094 208.914062 171.824219 208.050781 171.773438 207.1875 C 171.761719 207.003906 171.753906 206.832031 171.742188 206.65625 C 171.726562 206.300781 172.125 206.023438 172.449219 206.042969 C 172.84375 206.074219 173.046875 206.394531 173.0625 206.75 C 173.132812 207.96875 173.199219 209.203125 173.269531 210.421875 L 173.28125 210.683594 C 175.957031 214.683594 178.628906 218.6875 181.304688 222.6875 C 181.179688 220.308594 180.910156 217.925781 180.597656 215.566406 C 180.492188 214.757812 181.738281 214.492188 181.84375 215.3125 C 182.253906 218.40625 182.59375 221.550781 182.640625 224.6875 C 183.53125 226.015625 184.425781 227.351562 185.316406 228.691406 C 185.890625 229.546875 186.46875 230.410156 187.046875 231.277344 C 187.519531 231.976562 186.335938 232.570312 185.867188 231.878906 C 184.40625 229.695312 182.949219 227.511719 181.492188 225.328125 C 178.613281 223.507812 175.730469 221.679688 172.847656 219.863281 C 172.425781 219.597656 172.007812 219.332031 171.578125 219.058594 C 170.890625 218.621094 171.589844 217.5625 172.285156 218 C 174.769531 219.570312 177.257812 221.140625 179.746094 222.71875 C 177.757812 219.738281 175.765625 216.765625 173.777344 213.785156 C 173.246094 212.996094 172.714844 212.195312 172.1875 211.410156 C 170.875 210.722656 169.558594 210.042969 168.246094 209.347656 C 168.054688 209.253906 167.867188 209.152344 167.675781 209.046875 C 167.355469 208.882812 167.308594 208.410156 167.488281 208.132812 Z M 215.699219 156.941406 C 215.539062 157.9375 217.09375 158.035156 217.25 157.050781 C 217.445312 155.867188 217.636719 154.679688 217.824219 153.484375 C 218.121094 151.652344 218.414062 149.824219 218.714844 148.003906 C 221.171875 145.273438 223.394531 142.308594 225.523438 139.320312 C 226.082031 138.527344 224.832031 137.699219 224.273438 138.492188 C 222.648438 140.777344 220.96875 143.054688 219.164062 145.210938 C 219.554688 142.785156 219.949219 140.355469 220.339844 137.914062 C 220.847656 134.761719 221.363281 131.597656 221.875 128.433594 C 222.898438 127.199219 223.925781 125.964844 224.953125 124.726562 C 225.226562 124.410156 225.054688 123.867188 224.734375 123.65625 C 224.355469 123.40625 223.925781 123.550781 223.65625 123.878906 C 222.90625 124.773438 222.160156 125.667969 221.417969 126.5625 C 220.875 125.03125 220.335938 123.515625 219.796875 121.984375 C 219.65625 121.585938 219.089844 121.472656 218.753906 121.652344 C 218.34375 121.855469 218.269531 122.296875 218.414062 122.691406 C 218.496094 122.9375 218.578125 123.171875 218.664062 123.40625 C 219.222656 124.996094 219.78125 126.578125 220.34375 128.167969 C 220.160156 129.308594 219.96875 130.460938 219.785156 131.613281 C 219.121094 135.738281 218.457031 139.859375 217.792969 143.984375 C 216.910156 140.644531 216.03125 137.292969 215.152344 133.953125 C 214.90625 133.03125 213.4375 133.320312 213.679688 134.253906 L 214.128906 135.964844 C 215.15625 139.855469 216.175781 143.742188 217.203125 147.632812 C 216.699219 150.738281 216.195312 153.835938 215.699219 156.941406 " fill-opacity="1" fill-rule="nonzero"/></g></g></g></g></svg>