<svg xmlns="http://www.w3.org/2000/svg" xmlns:xlink="http://www.w3.org/1999/xlink" width="480" zoomAndPan="magnify" viewBox="0 0 360 503.999982" height="672" preserveAspectRatio="xMidYMid meet" version="1.0"><defs><clipPath id="47d68445d1"><path d="M 185 11 L 267 11 L 267 154 L 185 154 Z M 185 11 " clip-rule="nonzero"/></clipPath><clipPath id="1b374b0e4d"><path d="M 178.339844 0 L 290.546875 24.015625 L 188.363281 501.453125 L 76.152344 477.4375 Z M 178.339844 0 " clip-rule="nonzero"/></clipPath><clipPath id="19e35f5eed"><path d="M 178.339844 0 L 290.546875 24.015625 L 188.363281 501.453125 L 76.152344 477.4375 Z M 178.339844 0 " clip-rule="nonzero"/></clipPath><clipPath id="1a5ee2ebb9"><path d="M 178.339844 0 L 290.546875 24.015625 L 188.363281 501.453125 L 76.152344 477.4375 Z M 178.339844 0 " clip-rule="nonzero"/></clipPath><clipPath id="d10598c9a4"><path d="M 193.085938 3.15625 L 290.351562 23.972656 L 261.664062 158.007812 L 164.398438 137.191406 Z M 193.085938 3.15625 " clip-rule="nonzero"/></clipPath><clipPath id="35341e012e"><path d="M 209 32 L 250 32 L 250 135 L 209 135 Z M 209 32 " clip-rule="nonzero"/></clipPath><clipPath id="9ee19a5618"><path d="M 178.339844 0 L 290.546875 24.015625 L 188.363281 501.453125 L 76.152344 477.4375 Z M 178.339844 0 " clip-rule="nonzero"/></clipPath><clipPath id="e2e9018635"><path d="M 178.339844 0 L 290.546875 24.015625 L 188.363281 501.453125 L 76.152344 477.4375 Z M 178.339844 0 " clip-rule="nonzero"/></clipPath><clipPath id="89ede65f0c"><path d="M 178.339844 0 L 290.546875 24.015625 L 188.363281 501.453125 L 76.152344 477.4375 Z M 178.339844 0 " clip-rule="nonzero"/></clipPath><clipPath id="083bbcde04"><path d="M 92 76 L 247 76 L 247 485 L 92 485 Z M 92 76 " clip-rule="nonzero"/></clipPath><clipPath id="8f03225341"><path d="M 178.339844 0 L 290.546875 24.015625 L 188.363281 501.453125 L 76.152344 477.4375 Z M 178.339844 0 " clip-rule="nonzero"/></clipPath><clipPath id="a3f64b00aa"><path d="M 178.339844 0 L 290.546875 24.015625 L 188.363281 501.453125 L 76.152344 477.4375 Z M 178.339844 0 " clip-rule="nonzero"/></clipPath><clipPath id="9b76bd0cb1"><path d="M 178.339844 0 L 290.546875 24.015625 L 188.363281 501.453125 L 76.152344 477.4375 Z M 178.339844 0 " clip-rule="nonzero"/></clipPath><clipPath id="c0f50a1ab0"><path d="M 164.304688 66.539062 L 261.984375 87.449219 L 174.035156 498.375 L 76.351562 477.46875 Z M 164.304688 66.539062 " clip-rule="nonzero"/></clipPath><clipPath id="0f6d8e5a31"><path d="M 175 120 L 233 120 L 233 231 L 175 231 Z M 175 120 " clip-rule="nonzero"/></clipPath><clipPath id="f4ee095b9f"><path d="M 178.339844 0 L 290.546875 24.015625 L 188.363281 501.453125 L 76.152344 477.4375 Z M 178.339844 0 " clip-rule="nonzero"/></clipPath><clipPath id="bd904f31c0"><path d="M 178.339844 0 L 290.546875 24.015625 L 188.363281 501.453125 L 76.152344 477.4375 Z M 178.339844 0 " clip-rule="nonzero"/></clipPath><clipPath id="053f02d54f"><path d="M 178.339844 0 L 290.546875 24.015625 L 188.363281 501.453125 L 76.152344 477.4375 Z M 178.339844 0 " clip-rule="nonzero"/></clipPath></defs><g clip-path="url(#47d68445d1)"><g clip-path="url(#1b374b0e4d)"><g clip-path="url(#19e35f5eed)"><g clip-path="url(#1a5ee2ebb9)"><g clip-path="url(#d10598c9a4)"><path fill="#e6b366" d="M 265.742188 135.695312 C 265.417969 134.777344 264.882812 133.933594 264.324219 133.128906 C 264.1875 132.917969 264.035156 132.710938 263.980469 132.460938 C 263.664062 131.042969 265.246094 129.992188 264.378906 128.40625 C 263.78125 127.296875 262.449219 126.71875 261.320312 126.347656 C 258.789062 125.507812 255.980469 125.355469 253.335938 125.386719 C 251.664062 125.402344 250.023438 125.503906 248.589844 125.621094 C 250.003906 125.078125 251.570312 124.433594 253.148438 123.71875 C 259.757812 120.707031 263.363281 117.824219 263.859375 115.148438 C 264.230469 113.113281 262.824219 111.875 260.929688 111.519531 C 259.96875 111.335938 258.980469 111.382812 258.003906 111.460938 C 257.75 111.484375 257.488281 111.503906 257.242188 111.425781 C 255.859375 110.984375 255.746094 109.097656 253.9375 109.050781 C 252.675781 109.015625 251.515625 109.882812 250.625 110.675781 C 248.632812 112.449219 247.101562 114.800781 245.800781 117.109375 C 244.980469 118.566406 244.25 120.03125 243.636719 121.335938 C 243.867188 119.835938 244.09375 118.160156 244.261719 116.4375 C 244.957031 109.207031 244.265625 104.644531 242.195312 102.878906 C 240.613281 101.53125 238.847656 102.136719 237.585938 103.597656 C 236.949219 104.339844 236.496094 105.214844 236.074219 106.101562 C 235.964844 106.332031 235.851562 106.570312 235.664062 106.742188 C 234.589844 107.71875 232.898438 106.871094 231.953125 108.417969 C 231.296875 109.496094 231.464844 110.929688 231.707031 112.097656 C 232.246094 114.707031 233.519531 117.214844 234.863281 119.492188 C 235.71875 120.933594 236.621094 122.300781 237.445312 123.488281 C 236.261719 122.527344 234.925781 121.492188 233.511719 120.492188 C 227.597656 116.269531 223.300781 114.589844 220.734375 115.5 C 218.78125 116.195312 218.417969 118.023438 219.058594 119.84375 C 219.375 120.773438 219.910156 121.605469 220.46875 122.40625 C 220.613281 122.625 220.761719 122.839844 220.820312 123.089844 C 221.128906 124.503906 219.546875 125.546875 220.417969 127.132812 C 221.015625 128.25 222.339844 128.816406 223.480469 129.191406 C 226.007812 130.027344 228.8125 130.179688 231.460938 130.148438 C 233.136719 130.128906 234.769531 130.03125 236.207031 129.917969 C 234.789062 130.460938 233.226562 131.101562 231.648438 131.820312 C 225.035156 134.835938 221.433594 137.71875 220.9375 140.394531 C 220.566406 142.433594 221.972656 143.65625 223.867188 144.019531 C 224.824219 144.203125 225.816406 144.15625 226.789062 144.078125 C 227.046875 144.058594 227.304688 144.039062 227.554688 144.113281 C 228.933594 144.550781 229.050781 146.445312 230.863281 146.484375 C 232.117188 146.523438 233.273438 145.664062 234.171875 144.867188 C 236.160156 143.097656 237.695312 140.742188 238.992188 138.433594 C 239.8125 136.980469 240.546875 135.507812 241.160156 134.203125 C 240.925781 135.707031 240.699219 137.375 240.535156 139.101562 C 239.835938 146.328125 240.53125 150.898438 242.601562 152.667969 C 244.179688 154.007812 245.949219 153.40625 247.203125 151.949219 C 247.84375 151.203125 248.296875 150.324219 248.722656 149.4375 C 248.832031 149.210938 248.941406 148.972656 249.128906 148.796875 C 250.203125 147.820312 251.898438 148.660156 252.84375 147.125 C 253.5 146.046875 253.332031 144.609375 253.09375 143.441406 C 252.550781 140.835938 251.277344 138.324219 249.929688 136.046875 C 249.074219 134.613281 248.175781 133.238281 247.351562 132.0625 C 248.535156 133.011719 249.871094 134.046875 251.28125 135.054688 C 257.191406 139.277344 261.496094 140.957031 264.0625 140.039062 C 266.015625 139.347656 266.375 137.515625 265.742188 135.695312 Z M 232.851562 68.542969 C 229.511719 67.742188 226.117188 63.007812 222.757812 54.480469 C 221.957031 52.445312 221.253906 50.429688 220.660156 48.609375 C 220.714844 50.425781 220.730469 52.496094 220.640625 54.597656 C 220.503906 57.941406 220.128906 61.46875 218.902344 64.601562 C 218.355469 66.003906 217.546875 67.636719 216.113281 68.324219 C 214.046875 69.308594 212.835938 67.25 211.03125 67.542969 C 210.710938 67.59375 210.429688 67.769531 210.15625 67.941406 C 209.101562 68.589844 208.015625 69.207031 206.828125 69.550781 C 204.496094 70.230469 202.207031 69.652344 201.464844 67.144531 C 200.488281 63.851562 202.890625 58.546875 208.597656 51.371094 C 209.960938 49.664062 211.351562 48.046875 212.632812 46.625 C 211.085938 47.578125 209.304688 48.625 207.433594 49.601562 C 204.472656 51.152344 201.230469 52.589844 197.90625 53.09375 C 196.414062 53.324219 194.597656 53.441406 193.28125 52.539062 C 191.398438 51.242188 192.578125 49.164062 191.421875 47.75 C 191.214844 47.503906 190.917969 47.34375 190.636719 47.1875 C 189.546875 46.601562 188.472656 45.96875 187.582031 45.117188 C 185.824219 43.4375 185.179688 41.164062 186.980469 39.265625 C 189.34375 36.773438 195.140625 36.199219 204.207031 37.5625 C 206.367188 37.886719 208.460938 38.28125 210.339844 38.679688 C 208.734375 37.820312 206.9375 36.796875 205.160156 35.664062 C 202.332031 33.875 199.46875 31.785156 197.367188 29.160156 C 196.425781 27.980469 195.414062 26.464844 195.539062 24.882812 C 195.71875 22.601562 198.105469 22.582031 198.753906 20.871094 C 198.867188 20.570312 198.859375 20.238281 198.847656 19.914062 C 198.816406 18.679688 198.824219 17.433594 199.113281 16.230469 C 199.691406 13.871094 201.339844 12.175781 203.882812 12.785156 C 207.222656 13.585938 210.617188 18.316406 213.972656 26.851562 C 214.773438 28.886719 215.476562 30.894531 216.070312 32.722656 C 216.015625 30.902344 216.003906 28.835938 216.089844 26.726562 C 216.230469 23.386719 216.609375 19.859375 217.828125 16.730469 C 218.382812 15.324219 219.183594 13.691406 220.621094 13.007812 C 222.683594 12.019531 223.898438 14.082031 225.703125 13.785156 C 226.023438 13.734375 226.304688 13.554688 226.582031 13.386719 C 227.632812 12.742188 228.714844 12.125 229.902344 11.777344 C 232.238281 11.097656 234.523438 11.679688 235.269531 14.183594 C 236.246094 17.476562 233.847656 22.78125 228.132812 29.953125 C 226.773438 31.667969 225.378906 33.277344 224.097656 34.707031 C 225.648438 33.746094 227.429688 32.703125 229.300781 31.722656 C 232.261719 30.175781 235.503906 28.738281 238.832031 28.230469 C 240.320312 28.007812 242.140625 27.886719 243.449219 28.789062 C 245.335938 30.082031 244.15625 32.160156 245.316406 33.578125 C 245.519531 33.828125 245.8125 33.984375 246.097656 34.136719 C 247.183594 34.722656 248.261719 35.359375 249.152344 36.210938 C 250.910156 37.894531 251.554688 40.164062 249.757812 42.0625 C 247.390625 44.554688 241.59375 45.128906 232.523438 43.769531 C 230.367188 43.445312 228.269531 43.046875 226.394531 42.652344 C 228 43.511719 229.792969 44.535156 231.578125 45.660156 C 234.398438 47.453125 237.261719 49.539062 239.367188 52.167969 C 240.308594 53.347656 241.320312 54.859375 241.199219 56.449219 C 241.015625 58.726562 238.625 58.746094 237.976562 60.457031 C 237.867188 60.761719 237.875 61.09375 237.886719 61.414062 C 237.921875 62.648438 237.914062 63.898438 237.617188 65.097656 C 237.039062 67.460938 235.394531 69.152344 232.851562 68.542969 " fill-opacity="1" fill-rule="nonzero"/></g></g></g></g></g><g clip-path="url(#35341e012e)"><g clip-path="url(#9ee19a5618)"><g clip-path="url(#e2e9018635)"><g clip-path="url(#89ede65f0c)"><path fill="#7c484e" d="M 247.746094 123.757812 C 245.527344 120.804688 241.335938 120.210938 238.382812 122.425781 C 235.429688 124.644531 234.835938 128.828125 237.054688 131.78125 C 239.269531 134.734375 243.460938 135.324219 246.410156 133.109375 C 249.363281 130.894531 249.957031 126.707031 247.746094 123.757812 Z M 225.371094 35.960938 C 227.96875 39.828125 226.933594 45.070312 223.070312 47.664062 C 219.203125 50.261719 213.960938 49.230469 211.367188 45.363281 C 208.765625 41.496094 209.800781 36.257812 213.667969 33.660156 C 217.535156 31.0625 222.773438 32.097656 225.371094 35.960938 " fill-opacity="1" fill-rule="nonzero"/></g></g></g></g><g clip-path="url(#083bbcde04)"><g clip-path="url(#8f03225341)"><g clip-path="url(#a3f64b00aa)"><g clip-path="url(#9b76bd0cb1)"><g clip-path="url(#c0f50a1ab0)"><path fill="#466f4f" d="M 162.960938 363.414062 C 161.457031 363.789062 159.953125 364.160156 158.449219 364.523438 C 158.742188 363.566406 159.03125 362.605469 159.324219 361.648438 C 159.382812 361.453125 159.4375 361.257812 159.496094 361.066406 C 159.617188 360.667969 159.289062 360.226562 158.90625 360.144531 C 158.46875 360.050781 158.109375 360.332031 157.984375 360.742188 C 157.574219 362.109375 157.152344 363.488281 156.738281 364.855469 C 156.707031 364.957031 156.675781 365.070312 156.640625 365.179688 C 154.261719 367.355469 151.882812 369.53125 149.507812 371.707031 C 147.742188 373.328125 145.972656 374.949219 144.210938 376.558594 C 145.007812 373.90625 145.96875 371.285156 146.96875 368.707031 C 147.316406 367.824219 145.996094 367.128906 145.648438 368.023438 C 144.324219 371.433594 143.054688 374.921875 142.132812 378.460938 C 140.746094 379.742188 139.359375 381.007812 137.96875 382.277344 C 137.085938 383.085938 136.203125 383.898438 135.324219 384.699219 C 134.589844 385.378906 135.738281 386.417969 136.464844 385.746094 C 138.734375 383.667969 141.003906 381.589844 143.269531 379.507812 C 147.046875 378.242188 150.820312 376.972656 154.597656 375.707031 C 155.140625 375.53125 155.691406 375.34375 156.234375 375.167969 C 157.144531 374.863281 156.679688 373.4375 155.769531 373.742188 C 152.503906 374.847656 149.242188 375.941406 145.976562 377.035156 C 149.066406 374.207031 152.15625 371.371094 155.246094 368.542969 C 156.0625 367.796875 156.875 367.046875 157.695312 366.296875 C 159.363281 365.894531 161.035156 365.480469 162.707031 365.066406 C 162.949219 365.007812 163.199219 364.941406 163.441406 364.886719 C 163.851562 364.777344 164.0625 364.28125 163.9375 363.90625 C 163.796875 363.484375 163.367188 363.316406 162.960938 363.414062 Z M 184.140625 293.613281 C 182.632812 293.984375 181.132812 294.359375 179.628906 294.722656 C 179.917969 293.761719 180.207031 292.800781 180.503906 291.84375 C 180.5625 291.648438 180.621094 291.457031 180.679688 291.261719 C 180.796875 290.863281 180.46875 290.421875 180.085938 290.34375 C 179.648438 290.25 179.289062 290.539062 179.164062 290.9375 C 178.753906 292.304688 178.335938 293.683594 177.917969 295.050781 C 177.886719 295.152344 177.851562 295.265625 177.820312 295.367188 C 175.445312 297.550781 173.0625 299.726562 170.6875 301.902344 C 168.917969 303.523438 167.152344 305.144531 165.390625 306.765625 C 166.1875 304.101562 167.148438 301.480469 168.148438 298.914062 C 168.492188 298.019531 167.175781 297.324219 166.828125 298.21875 C 165.503906 301.628906 164.234375 305.117188 163.316406 308.660156 C 161.925781 309.9375 160.539062 311.203125 159.148438 312.472656 C 158.265625 313.285156 157.386719 314.09375 156.503906 314.894531 C 155.769531 315.574219 156.917969 316.613281 157.648438 315.941406 C 159.914062 313.863281 162.179688 311.785156 164.449219 309.707031 C 168.226562 308.4375 172 307.171875 175.777344 305.902344 C 176.320312 305.726562 176.871094 305.539062 177.414062 305.363281 C 178.324219 305.058594 177.859375 303.632812 176.949219 303.9375 C 173.683594 305.042969 170.417969 306.136719 167.15625 307.230469 C 170.246094 304.40625 173.335938 301.566406 176.425781 298.742188 C 177.242188 297.992188 178.058594 297.242188 178.875 296.492188 C 180.542969 296.089844 182.210938 295.675781 183.882812 295.261719 C 184.128906 295.207031 184.378906 295.140625 184.625 295.082031 C 185.03125 294.976562 185.242188 294.476562 185.117188 294.101562 C 184.980469 293.683594 184.546875 293.515625 184.140625 293.613281 Z M 235.289062 199.417969 C 235.300781 198.90625 235.3125 198.410156 235.328125 197.914062 C 235.339844 197.523438 235.117188 197.152344 234.742188 196.941406 C 234.394531 196.746094 234 196.75 233.695312 196.945312 C 231.757812 198.183594 219.832031 207.074219 216.636719 210.464844 C 212.074219 215.308594 206.1875 223.015625 207.785156 233.8125 C 207.824219 234.058594 207.878906 234.289062 207.949219 234.507812 C 208.191406 235.222656 208.628906 235.785156 209.257812 236.15625 C 211.078125 237.253906 213.886719 236.476562 216.128906 235.671875 L 216.292969 235.609375 C 219.496094 234.480469 221.796875 232.660156 224.257812 230.273438 C 228.507812 226.152344 231.558594 221.328125 233.324219 215.9375 C 233.460938 215.519531 233.59375 215.082031 233.71875 214.640625 L 233.714844 214.640625 C 235.027344 209.878906 235.15625 204.558594 235.289062 199.417969 Z M 182.582031 163.632812 C 182.808594 163.8125 183.046875 163.957031 183.277344 164.097656 C 184.066406 164.523438 184.894531 164.648438 185.734375 164.46875 C 188.179688 163.949219 189.972656 161.03125 191.257812 158.546875 L 191.355469 158.347656 C 193.203125 154.8125 193.722656 151.402344 193.925781 147.371094 C 194.28125 140.414062 193.039062 133.804688 190.234375 127.738281 C 190.015625 127.265625 189.777344 126.792969 189.53125 126.316406 C 186.835938 121.164062 182.679688 116.472656 178.664062 111.9375 C 178.273438 111.496094 177.882812 111.054688 177.496094 110.613281 C 177.195312 110.265625 176.699219 110.136719 176.214844 110.25 C 175.753906 110.359375 175.421875 110.667969 175.3125 111.082031 C 174.636719 113.695312 171.5 130.929688 171.46875 136.421875 C 171.429688 144.261719 172.539062 155.601562 182.582031 163.632812 Z M 223.269531 173.21875 C 217.605469 188.503906 210.261719 203.132812 202.390625 217.390625 C 193.5625 233.386719 183.976562 248.957031 174.234375 264.410156 C 172.851562 266.605469 171.460938 268.785156 170.070312 270.976562 C 162.726562 294.472656 155.296875 317.941406 148.039062 341.453125 C 139.796875 368.148438 131.699219 394.90625 124.59375 421.933594 C 119.273438 442.167969 114.0625 462.761719 111.984375 483.628906 C 111.792969 485.554688 108.863281 484.90625 109.050781 483 C 109.257812 480.9375 109.5 478.871094 109.777344 476.808594 C 112.691406 455.046875 118.277344 433.621094 124.027344 412.464844 C 131.519531 384.894531 139.886719 357.574219 148.367188 330.300781 C 153.519531 313.734375 158.726562 297.203125 163.914062 280.65625 C 157.179688 291.199219 150.417969 301.738281 143.761719 312.332031 C 134 327.867188 124.421875 343.550781 115.628906 359.671875 C 111.917969 366.476562 108.347656 373.359375 105.011719 380.351562 C 105.25 380.140625 105.492188 379.933594 105.730469 379.722656 C 107.082031 378.542969 108.433594 377.367188 109.785156 376.1875 C 110.738281 372.839844 112.015625 369.558594 113.351562 366.359375 C 113.699219 365.519531 114.957031 366.167969 114.605469 367.007812 C 113.59375 369.441406 112.617188 371.917969 111.796875 374.425781 C 113.507812 372.933594 115.222656 371.441406 116.933594 369.9375 C 119.246094 367.925781 121.554688 365.90625 123.867188 363.890625 C 123.902344 363.792969 123.933594 363.699219 123.964844 363.597656 C 124.386719 362.308594 124.8125 361.007812 125.238281 359.71875 C 125.367188 359.34375 125.6875 359.066406 126.113281 359.15625 C 126.472656 359.234375 126.804688 359.652344 126.679688 360.027344 C 126.621094 360.210938 126.558594 360.394531 126.5 360.578125 C 126.195312 361.488281 125.894531 362.402344 125.597656 363.304688 C 127.03125 362.992188 128.460938 362.679688 129.894531 362.367188 C 130.28125 362.277344 130.691406 362.417969 130.824219 362.828125 C 130.9375 363.179688 130.746094 363.667969 130.355469 363.761719 C 130.121094 363.808594 129.882812 363.867188 129.652344 363.914062 C 128.046875 364.265625 126.441406 364.628906 124.839844 364.980469 C 124.050781 365.671875 123.261719 366.359375 122.46875 367.050781 C 119.46875 369.667969 116.464844 372.292969 113.464844 374.910156 C 116.585938 373.949219 119.707031 372.976562 122.828125 372.015625 C 123.699219 371.746094 124.144531 373.089844 123.269531 373.359375 C 122.742188 373.53125 122.214844 373.6875 121.691406 373.847656 C 118.074219 374.976562 114.449219 376.089844 110.832031 377.207031 C 108.640625 379.128906 106.441406 381.039062 104.25 382.957031 C 104.074219 383.117188 103.878906 383.160156 103.695312 383.144531 C 100.441406 390.140625 97.433594 397.234375 94.804688 404.472656 C 94.179688 406.199219 91.65625 404.863281 92.273438 403.160156 C 92.917969 401.386719 93.585938 399.617188 94.269531 397.859375 C 100.359375 382.300781 108.007812 367.375 116.164062 352.8125 C 117.628906 350.191406 119.125 347.578125 120.632812 344.964844 C 120.648438 344.785156 120.667969 344.59375 120.6875 344.402344 C 120.855469 342.679688 121.019531 340.941406 121.183594 339.214844 C 119.585938 336.136719 118.261719 332.898438 117.027344 329.65625 C 116.703125 328.804688 118.050781 328.363281 118.375 329.214844 C 119.3125 331.6875 120.304688 334.160156 121.4375 336.566406 C 121.65625 334.242188 121.878906 331.933594 122.101562 329.613281 C 122.390625 326.609375 122.675781 323.605469 122.964844 320.601562 C 122.898438 320.457031 122.828125 320.3125 122.761719 320.167969 C 122.183594 318.9375 121.605469 317.714844 121.027344 316.484375 C 120.859375 316.121094 121.152344 315.675781 121.496094 315.5625 C 121.902344 315.421875 122.253906 315.671875 122.425781 316.023438 C 122.507812 316.203125 122.59375 316.382812 122.679688 316.566406 C 123.058594 317.375 123.441406 318.195312 123.824219 319.003906 C 124.644531 317.800781 125.46875 316.585938 126.289062 315.371094 C 126.511719 315.039062 126.894531 314.859375 127.277344 315.0625 C 127.605469 315.230469 127.816406 315.71875 127.59375 316.050781 C 127.457031 316.25 127.320312 316.449219 127.1875 316.648438 C 126.265625 318.007812 125.339844 319.375 124.417969 320.730469 C 124.3125 321.835938 124.210938 322.933594 124.101562 324.03125 C 123.730469 327.9375 123.351562 331.855469 122.980469 335.777344 C 124.585938 332.925781 126.1875 330.082031 127.789062 327.242188 C 128.238281 326.449219 129.496094 327.097656 129.042969 327.890625 C 128.773438 328.378906 128.503906 328.863281 128.230469 329.335938 C 126.367188 332.644531 124.507812 335.941406 122.648438 339.238281 C 122.5625 340.140625 122.472656 341.046875 122.386719 341.941406 C 129.582031 329.625 137.113281 317.515625 144.734375 305.464844 C 152.171875 293.703125 159.703125 282.011719 167.164062 270.265625 C 170.007812 261.171875 172.839844 252.074219 175.640625 242.96875 C 176.816406 239.125 177.992188 235.28125 179.160156 231.445312 C 178.984375 230.570312 178.808594 229.695312 178.628906 228.820312 C 178.132812 226.398438 177.636719 223.988281 177.144531 221.570312 C 173.941406 218.265625 171.039062 214.632812 168.253906 210.984375 C 167.511719 210.011719 169.105469 208.992188 169.847656 209.957031 C 171.9375 212.707031 174.101562 215.441406 176.417969 218.023438 C 175.789062 214.957031 175.160156 211.886719 174.527344 208.828125 C 173.679688 204.671875 172.828125 200.519531 171.980469 196.375 C 170.691406 194.933594 169.40625 193.496094 168.117188 192.058594 C 167.765625 191.65625 167.667969 191.09375 168.054688 190.664062 C 168.390625 190.300781 169.09375 190.203125 169.445312 190.605469 L 172.40625 193.910156 C 172.9375 191.925781 173.472656 189.933594 174.003906 187.949219 C 174.144531 187.4375 174.628906 187.074219 175.171875 187.191406 C 175.675781 187.296875 176.066406 187.847656 175.929688 188.363281 C 175.839844 188.691406 175.753906 189.011719 175.667969 189.339844 C 175.070312 191.546875 174.480469 193.757812 173.890625 195.957031 C 174.179688 197.378906 174.472656 198.796875 174.761719 200.21875 C 175.847656 205.515625 176.933594 210.8125 178.015625 216.105469 C 178.851562 211.667969 179.695312 207.21875 180.53125 202.777344 C 180.757812 201.578125 182.605469 201.984375 182.382812 203.175781 C 182.238281 203.9375 182.097656 204.691406 181.953125 205.453125 C 180.976562 210.632812 179.996094 215.824219 179.023438 221.003906 L 180.355469 227.515625 C 186.828125 206.191406 193.078125 184.785156 198.644531 163.203125 C 203.628906 143.859375 208.554688 124.105469 210.292969 104.140625 L 209.957031 104.128906 C 209.699219 102.6875 197.910156 76.5625 197.910156 76.5625 C 197.910156 76.5625 208.472656 77.492188 212.898438 87.308594 C 213.253906 88.089844 213.523438 88.855469 213.734375 89.597656 C 214.148438 88.949219 214.625 88.296875 215.191406 87.644531 C 222.273438 79.53125 232.652344 81.699219 232.652344 81.699219 C 232.652344 81.699219 214.074219 102.929688 213.410156 104.234375 L 213.273438 104.230469 C 213.128906 105.992188 212.949219 107.753906 212.746094 109.503906 C 210.222656 130.832031 204.824219 151.851562 199.289062 172.554688 C 191.972656 199.925781 183.714844 227.039062 175.332031 254.097656 C 174.667969 256.226562 174 258.351562 173.34375 260.484375 C 173.949219 259.515625 174.5625 258.550781 175.167969 257.582031 C 184.742188 242.289062 194.105469 226.851562 202.652344 210.957031 C 209.480469 198.238281 215.855469 185.171875 220.828125 171.601562 L 220.429688 171.480469 C 220.535156 170.101562 215.792969 143.28125 215.792969 143.28125 C 215.792969 143.28125 225.304688 146.609375 227.082031 156.683594 C 227.230469 157.484375 227.292969 158.25 227.3125 158.992188 C 227.847656 158.488281 228.441406 157.996094 229.117188 157.53125 C 237.539062 151.714844 246.585938 156.140625 246.585938 156.140625 C 246.585938 156.140625 224.5 171.34375 223.589844 172.386719 L 223.5625 172.378906 C 223.457031 172.664062 223.367188 172.949219 223.269531 173.21875 " fill-opacity="1" fill-rule="nonzero"/></g></g></g></g></g><g clip-path="url(#0f6d8e5a31)"><g clip-path="url(#f4ee095b9f)"><g clip-path="url(#bd904f31c0)"><g clip-path="url(#053f02d54f)"><path fill="#71a674" d="M 232.671875 206.929688 C 232.464844 206.601562 232.082031 206.574219 231.769531 206.734375 C 230.59375 207.332031 229.425781 207.929688 228.261719 208.515625 C 228.3125 207.660156 228.371094 206.800781 228.425781 205.945312 C 228.441406 205.761719 228.449219 205.589844 228.460938 205.421875 C 228.480469 205.066406 228.089844 204.785156 227.765625 204.804688 C 227.375 204.828125 227.171875 205.144531 227.148438 205.496094 C 227.070312 206.707031 226.988281 207.929688 226.910156 209.140625 L 226.894531 209.398438 C 224.199219 213.339844 221.503906 217.285156 218.804688 221.226562 C 218.953125 218.871094 219.246094 216.507812 219.578125 214.167969 C 219.691406 213.367188 218.457031 213.089844 218.34375 213.902344 C 217.90625 216.972656 217.539062 220.085938 217.457031 223.199219 C 216.5625 224.507812 215.660156 225.824219 214.761719 227.144531 C 214.183594 227.988281 213.601562 228.839844 213.015625 229.691406 C 212.539062 230.382812 213.710938 230.984375 214.183594 230.300781 C 215.652344 228.148438 217.125 225.996094 218.59375 223.84375 C 221.472656 222.070312 224.355469 220.285156 227.234375 218.511719 C 227.65625 218.253906 228.074219 217.996094 228.5 217.730469 C 229.191406 217.300781 228.507812 216.242188 227.8125 216.667969 C 225.328125 218.203125 222.84375 219.734375 220.351562 221.277344 C 222.359375 218.339844 224.367188 215.410156 226.371094 212.46875 C 226.90625 211.695312 227.445312 210.90625 227.976562 210.128906 C 229.285156 209.464844 230.601562 208.800781 231.910156 208.125 C 232.101562 208.035156 232.289062 207.933594 232.480469 207.832031 C 232.796875 207.671875 232.851562 207.207031 232.671875 206.929688 Z M 185.292969 155.628906 C 185.445312 156.617188 183.898438 156.699219 183.75 155.722656 C 183.570312 154.542969 183.390625 153.363281 183.214844 152.171875 C 182.9375 150.351562 182.664062 148.535156 182.386719 146.726562 C 179.972656 143.992188 177.792969 141.027344 175.707031 138.035156 C 175.160156 137.246094 176.410156 136.4375 176.960938 137.230469 C 178.550781 139.515625 180.199219 141.789062 181.96875 143.953125 C 181.605469 141.539062 181.238281 139.121094 180.871094 136.699219 C 180.398438 133.5625 179.921875 130.417969 179.445312 127.273438 C 178.4375 126.039062 177.429688 124.800781 176.421875 123.5625 C 176.152344 123.246094 176.328125 122.707031 176.648438 122.503906 C 177.027344 122.257812 177.453125 122.40625 177.71875 122.734375 C 178.453125 123.628906 179.1875 124.523438 179.917969 125.421875 C 180.46875 123.910156 181.019531 122.40625 181.570312 120.894531 C 181.710938 120.5 182.277344 120.394531 182.609375 120.574219 C 183.015625 120.78125 183.082031 121.21875 182.9375 121.613281 C 182.851562 121.855469 182.769531 122.085938 182.683594 122.316406 C 182.113281 123.890625 181.539062 125.453125 180.964844 127.023438 C 181.140625 128.160156 181.3125 129.304688 181.484375 130.449219 C 182.105469 134.550781 182.722656 138.648438 183.34375 142.746094 C 184.25 139.441406 185.160156 136.125 186.066406 132.820312 C 186.316406 131.90625 187.777344 132.210938 187.523438 133.132812 L 187.058594 134.828125 C 186.003906 138.675781 184.949219 142.523438 183.890625 146.375 C 184.359375 149.460938 184.832031 152.539062 185.292969 155.628906 " fill-opacity="1" fill-rule="nonzero"/></g></g></g></g></svg>