<svg xmlns="http://www.w3.org/2000/svg" xmlns:xlink="http://www.w3.org/1999/xlink" width="480" zoomAndPan="magnify" viewBox="0 0 360 503.999982" height="672" preserveAspectRatio="xMidYMid meet" version="1.0"><defs><clipPath id="98204da2c7"><path d="M 59 10 L 177 10 L 177 218 L 59 218 Z M 59 10 " clip-rule="nonzero"/></clipPath><clipPath id="c5734a556e"><path d="M 48.882812 -5.976562 L 212.429688 29.027344 L 63.777344 723.550781 L -99.765625 688.542969 Z M 48.882812 -5.976562 " clip-rule="nonzero"/></clipPath><clipPath id="5e8c5b51d5"><path d="M 48.882812 -5.976562 L 212.429688 29.027344 L 105.847656 527 L -57.699219 491.996094 Z M 48.882812 -5.976562 " clip-rule="nonzero"/></clipPath><clipPath id="bb0936e334"><path d="M 48.882812 -5.976562 L 212.429688 29.027344 L 63.777344 723.550781 L -99.765625 688.542969 Z M 48.882812 -5.976562 " clip-rule="nonzero"/></clipPath><clipPath id="65c5a419e5"><path d="M 70.375 -1.375 L 212.140625 28.96875 L 170.40625 223.945312 L 28.644531 193.605469 Z M 70.375 -1.375 " clip-rule="nonzero"/></clipPath><clipPath id="b001356f7e"><path d="M 94 40 L 153 40 L 153 190 L 94 190 Z M 94 40 " clip-rule="nonzero"/></clipPath><clipPath id="db514cab4f"><path d="M 48.882812 -5.976562 L 212.429688 29.027344 L 63.777344 723.550781 L -99.765625 688.542969 Z M 48.882812 -5.976562 " clip-rule="nonzero"/></clipPath><clipPath id="67e26a3d1a"><path d="M 48.882812 -5.976562 L 212.429688 29.027344 L 105.847656 527 L -57.699219 491.996094 Z M 48.882812 -5.976562 " clip-rule="nonzero"/></clipPath><clipPath id="32c385f165"><path d="M 48.882812 -5.976562 L 212.429688 29.027344 L 63.777344 723.550781 L -99.765625 688.542969 Z M 48.882812 -5.976562 " clip-rule="nonzero"/></clipPath><clipPath id="aba4124f3c"><path d="M 0 105 L 149 105 L 149 504 L 0 504 Z M 0 105 " clip-rule="nonzero"/></clipPath><clipPath id="97400ff839"><path d="M 48.882812 -5.976562 L 212.429688 29.027344 L 63.777344 723.550781 L -99.765625 688.542969 Z M 48.882812 -5.976562 " clip-rule="nonzero"/></clipPath><clipPath id="6b708ee906"><path d="M 48.882812 -5.976562 L 212.429688 29.027344 L 105.847656 527 L -57.699219 491.996094 Z M 48.882812 -5.976562 " clip-rule="nonzero"/></clipPath><clipPath id="eee99d73ee"><path d="M 48.882812 -5.976562 L 212.429688 29.027344 L 63.777344 723.550781 L -99.765625 688.542969 Z M 48.882812 -5.976562 " clip-rule="nonzero"/></clipPath><clipPath id="832361f9d7"><path d="M 28.46875 90.820312 L 170.835938 121.292969 L 42.894531 719.0625 L -99.476562 688.589844 Z M 28.46875 90.820312 " clip-rule="nonzero"/></clipPath><clipPath id="632df08cde"><path d="M 44 169 L 129 169 L 129 330 L 44 330 Z M 44 169 " clip-rule="nonzero"/></clipPath><clipPath id="4ee7151903"><path d="M 48.882812 -5.976562 L 212.429688 29.027344 L 63.777344 723.550781 L -99.765625 688.542969 Z M 48.882812 -5.976562 " clip-rule="nonzero"/></clipPath><clipPath id="b2c5bbe65e"><path d="M 48.882812 -5.976562 L 212.429688 29.027344 L 105.847656 527 L -57.699219 491.996094 Z M 48.882812 -5.976562 " clip-rule="nonzero"/></clipPath><clipPath id="f84ebf1e82"><path d="M 48.882812 -5.976562 L 212.429688 29.027344 L 63.777344 723.550781 L -99.765625 688.542969 Z M 48.882812 -5.976562 " clip-rule="nonzero"/></clipPath></defs><g clip-path="url(#98204da2c7)"><g clip-path="url(#c5734a556e)"><g clip-path="url(#5e8c5b51d5)"><g clip-path="url(#bb0936e334)"><g clip-path="url(#65c5a419e5)"><path fill="#e6b366" d="M 176.339844 191.484375 C 175.867188 190.148438 175.082031 188.921875 174.273438 187.753906 C 174.070312 187.441406 173.847656 187.140625 173.769531 186.777344 C 173.308594 184.71875 175.613281 183.1875 174.351562 180.878906 C 173.476562 179.269531 171.535156 178.425781 169.890625 177.886719 C 166.199219 176.660156 162.109375 176.441406 158.25 176.484375 C 155.816406 176.5 153.425781 176.652344 151.335938 176.820312 C 153.398438 176.03125 155.675781 175.09375 157.980469 174.054688 C 167.609375 169.675781 172.863281 165.484375 173.582031 161.59375 C 174.121094 158.628906 172.070312 156.832031 169.3125 156.308594 C 167.910156 156.046875 166.472656 156.109375 165.046875 156.226562 C 164.675781 156.257812 164.292969 156.285156 163.941406 156.171875 C 161.925781 155.53125 161.757812 152.785156 159.117188 152.714844 C 157.277344 152.667969 155.59375 153.921875 154.292969 155.078125 C 151.390625 157.65625 149.160156 161.078125 147.265625 164.433594 C 146.070312 166.554688 145.007812 168.6875 144.113281 170.582031 C 144.449219 168.402344 144.78125 165.964844 145.027344 163.453125 C 146.035156 152.9375 145.023438 146.300781 142.003906 143.730469 C 139.699219 141.773438 137.125 142.648438 135.289062 144.773438 C 134.359375 145.851562 133.695312 147.125 133.085938 148.414062 C 132.925781 148.75 132.761719 149.097656 132.484375 149.347656 C 130.925781 150.765625 128.460938 149.535156 127.082031 151.785156 C 126.121094 153.351562 126.367188 155.433594 126.722656 157.132812 C 127.511719 160.933594 129.367188 164.578125 131.328125 167.894531 C 132.578125 169.988281 133.890625 171.980469 135.09375 173.707031 C 133.367188 172.3125 131.417969 170.804688 129.359375 169.351562 C 120.738281 163.203125 114.476562 160.757812 110.734375 162.078125 C 107.886719 163.089844 107.363281 165.75 108.292969 168.398438 C 108.757812 169.746094 109.539062 170.957031 110.351562 172.128906 C 110.5625 172.441406 110.78125 172.757812 110.863281 173.125 C 111.3125 175.179688 109.011719 176.695312 110.277344 179.003906 C 111.152344 180.628906 113.082031 181.453125 114.742188 182 C 118.429688 183.214844 122.515625 183.441406 126.378906 183.398438 C 128.816406 183.367188 131.199219 183.230469 133.292969 183.0625 C 131.226562 183.851562 128.945312 184.785156 126.648438 185.828125 C 117.011719 190.214844 111.765625 194.402344 111.042969 198.292969 C 110.503906 201.261719 112.550781 203.042969 115.316406 203.570312 C 116.714844 203.839844 118.15625 203.769531 119.574219 203.660156 C 119.949219 203.632812 120.328125 203.601562 120.6875 203.710938 C 122.699219 204.347656 122.871094 207.101562 125.511719 207.160156 C 127.34375 207.222656 129.027344 205.96875 130.335938 204.808594 C 133.230469 202.238281 135.46875 198.8125 137.355469 195.453125 C 138.550781 193.339844 139.621094 191.195312 140.515625 189.300781 C 140.171875 191.488281 139.84375 193.914062 139.605469 196.425781 C 138.589844 206.941406 139.605469 213.589844 142.625 216.167969 C 144.921875 218.113281 147.503906 217.242188 149.332031 215.121094 C 150.261719 214.039062 150.925781 212.757812 151.542969 211.46875 C 151.699219 211.136719 151.859375 210.792969 152.136719 210.535156 C 153.699219 209.117188 156.167969 210.339844 157.546875 208.105469 C 158.503906 206.539062 158.261719 204.449219 157.90625 202.746094 C 157.117188 198.957031 155.261719 195.304688 153.292969 191.988281 C 152.050781 189.90625 150.738281 187.902344 149.535156 186.1875 C 151.261719 187.570312 153.210938 189.078125 155.265625 190.546875 C 163.882812 196.6875 170.15625 199.140625 173.894531 197.804688 C 176.738281 196.800781 177.261719 194.132812 176.339844 191.484375 Z M 128.367188 93.773438 C 123.5 92.605469 118.546875 85.714844 113.648438 73.308594 C 112.480469 70.347656 111.453125 67.417969 110.585938 64.765625 C 110.671875 67.410156 110.695312 70.421875 110.566406 73.480469 C 110.367188 78.34375 109.820312 83.472656 108.03125 88.03125 C 107.238281 90.070312 106.0625 92.449219 103.972656 93.445312 C 100.960938 94.875 99.195312 91.882812 96.566406 92.304688 C 96.101562 92.378906 95.6875 92.636719 95.289062 92.882812 C 93.757812 93.828125 92.171875 94.726562 90.445312 95.226562 C 87.046875 96.214844 83.707031 95.367188 82.621094 91.722656 C 81.199219 86.929688 84.695312 79.210938 93.011719 68.777344 C 94.996094 66.296875 97.019531 63.945312 98.886719 61.875 C 96.632812 63.261719 94.039062 64.78125 91.308594 66.203125 C 86.996094 68.457031 82.273438 70.542969 77.429688 71.277344 C 75.253906 71.609375 72.605469 71.777344 70.691406 70.464844 C 67.945312 68.582031 69.664062 65.558594 67.972656 63.5 C 67.675781 63.140625 67.242188 62.90625 66.832031 62.683594 C 65.246094 61.828125 63.679688 60.910156 62.378906 59.664062 C 59.8125 57.222656 58.875 53.914062 61.496094 51.15625 C 64.9375 47.53125 73.390625 46.699219 86.601562 48.6875 C 89.753906 49.15625 92.804688 49.734375 95.539062 50.316406 C 93.203125 49.0625 90.582031 47.574219 87.988281 45.925781 C 83.871094 43.320312 79.695312 40.28125 76.632812 36.457031 C 75.253906 34.742188 73.785156 32.535156 73.960938 30.234375 C 74.222656 26.914062 77.703125 26.886719 78.644531 24.402344 C 78.8125 23.960938 78.796875 23.476562 78.78125 23.003906 C 78.734375 21.210938 78.742188 19.398438 79.167969 17.648438 C 80.007812 14.214844 82.410156 11.753906 86.117188 12.640625 C 90.984375 13.804688 95.933594 20.691406 100.832031 33.109375 C 101.996094 36.070312 103.023438 38.992188 103.890625 41.648438 C 103.808594 39 103.789062 35.996094 103.914062 32.929688 C 104.117188 28.070312 104.667969 22.9375 106.445312 18.386719 C 107.246094 16.339844 108.417969 13.96875 110.511719 12.96875 C 113.515625 11.539062 115.285156 14.535156 117.914062 14.105469 C 118.382812 14.03125 118.789062 13.773438 119.195312 13.527344 C 120.726562 12.589844 122.304688 11.691406 124.035156 11.191406 C 127.4375 10.203125 130.773438 11.046875 131.859375 14.695312 C 133.285156 19.480469 129.789062 27.199219 121.46875 37.632812 C 119.488281 40.121094 117.457031 42.464844 115.589844 44.542969 C 117.847656 43.148438 120.445312 41.628906 123.167969 40.203125 C 127.488281 37.957031 132.210938 35.867188 137.058594 35.132812 C 139.230469 34.804688 141.878906 34.632812 143.789062 35.941406 C 146.539062 37.828125 144.824219 40.851562 146.511719 42.910156 C 146.808594 43.277344 147.238281 43.503906 147.652344 43.730469 C 149.234375 44.582031 150.804688 45.503906 152.105469 46.746094 C 154.667969 49.195312 155.609375 52.496094 152.988281 55.257812 C 149.539062 58.882812 141.09375 59.710938 127.878906 57.730469 C 124.730469 57.257812 121.671875 56.679688 118.9375 56.101562 C 121.28125 57.355469 123.894531 58.84375 126.496094 60.484375 C 130.609375 63.09375 134.785156 66.128906 137.851562 69.953125 C 139.222656 71.667969 140.699219 73.875 140.523438 76.179688 C 140.257812 79.496094 136.777344 79.523438 135.832031 82.015625 C 135.671875 82.453125 135.683594 82.9375 135.703125 83.40625 C 135.753906 85.199219 135.738281 87.019531 135.3125 88.761719 C 134.46875 92.199219 132.074219 94.664062 128.367188 93.773438 " fill-opacity="1" fill-rule="nonzero"/></g></g></g></g></g><g clip-path="url(#b001356f7e)"><g clip-path="url(#db514cab4f)"><g clip-path="url(#67e26a3d1a)"><g clip-path="url(#32c385f165)"><path fill="#7c484e" d="M 150.101562 174.109375 C 146.871094 169.8125 140.761719 168.945312 136.460938 172.167969 C 132.160156 175.390625 131.292969 181.480469 134.527344 185.773438 C 137.757812 190.070312 143.867188 190.933594 148.164062 187.714844 C 152.464844 184.492188 153.328125 178.402344 150.101562 174.109375 Z M 117.445312 46.371094 C 121.234375 51.996094 119.730469 59.621094 114.097656 63.394531 C 108.464844 67.171875 100.824219 65.664062 97.039062 60.039062 C 93.25 54.410156 94.75 46.792969 100.386719 43.015625 C 106.019531 39.238281 113.65625 40.742188 117.445312 46.371094 " fill-opacity="1" fill-rule="nonzero"/></g></g></g></g><g clip-path="url(#aba4124f3c)"><g clip-path="url(#97400ff839)"><g clip-path="url(#6b708ee906)"><g clip-path="url(#eee99d73ee)"><g clip-path="url(#832361f9d7)"><path fill="#466f4f" d="M 26.675781 522.714844 C 24.488281 523.257812 22.292969 523.800781 20.101562 524.328125 C 20.53125 522.933594 20.953125 521.535156 21.375 520.140625 C 21.460938 519.859375 21.546875 519.578125 21.632812 519.292969 C 21.804688 518.714844 21.324219 518.074219 20.765625 517.957031 C 20.128906 517.820312 19.605469 518.230469 19.425781 518.824219 C 18.824219 520.8125 18.214844 522.816406 17.613281 524.804688 C 17.566406 524.953125 17.519531 525.117188 17.46875 525.28125 C 14.003906 528.441406 10.539062 531.605469 7.078125 534.769531 C 4.507812 537.128906 1.929688 539.484375 -0.640625 541.828125 C 0.519531 537.964844 1.917969 534.15625 3.378906 530.40625 C 3.878906 529.121094 1.957031 528.109375 1.449219 529.40625 C -0.480469 534.367188 -2.324219 539.441406 -3.664062 544.59375 C -5.6875 546.453125 -7.710938 548.296875 -9.730469 550.140625 C -11.015625 551.320312 -12.300781 552.496094 -13.585938 553.660156 C -14.65625 554.648438 -12.980469 556.160156 -11.921875 555.1875 C -8.617188 552.164062 -5.3125 549.140625 -2.011719 546.117188 C 3.496094 544.277344 8.992188 542.433594 14.5 540.59375 C 15.289062 540.335938 16.089844 540.066406 16.882812 539.808594 C 18.207031 539.363281 17.53125 537.292969 16.207031 537.734375 C 11.445312 539.339844 6.691406 540.929688 1.933594 542.519531 C 6.433594 538.410156 10.9375 534.28125 15.4375 530.171875 C 16.628906 529.082031 17.816406 527.992188 19.007812 526.90625 C 21.4375 526.320312 23.875 525.71875 26.3125 525.117188 C 26.664062 525.035156 27.023438 524.9375 27.382812 524.855469 C 27.980469 524.699219 28.285156 523.976562 28.101562 523.429688 C 27.902344 522.816406 27.273438 522.574219 26.675781 522.714844 Z M 57.507812 421.175781 C 55.3125 421.71875 53.121094 422.261719 50.929688 422.789062 C 51.351562 421.390625 51.773438 419.996094 52.203125 418.601562 C 52.289062 418.320312 52.375 418.039062 52.457031 417.757812 C 52.632812 417.175781 52.152344 416.535156 51.59375 416.417969 C 50.957031 416.28125 50.429688 416.707031 50.253906 417.285156 C 49.652344 419.273438 49.046875 421.277344 48.441406 423.265625 C 48.394531 423.414062 48.34375 423.578125 48.296875 423.726562 C 44.832031 426.90625 41.367188 430.066406 37.90625 433.230469 C 35.328125 435.585938 32.757812 437.945312 30.1875 440.304688 C 31.351562 436.425781 32.746094 432.617188 34.203125 428.882812 C 34.703125 427.582031 32.785156 426.570312 32.277344 427.867188 C 30.347656 432.832031 28.503906 437.90625 27.164062 443.054688 C 25.140625 444.914062 23.117188 446.757812 21.09375 448.601562 C 19.808594 449.78125 18.523438 450.960938 17.242188 452.125 C 16.171875 453.109375 17.84375 454.625 18.90625 453.648438 C 22.210938 450.625 25.511719 447.601562 28.816406 444.578125 C 34.324219 442.738281 39.824219 440.894531 45.328125 439.054688 C 46.117188 438.796875 46.917969 438.527344 47.710938 438.269531 C 49.035156 437.824219 48.359375 435.753906 47.035156 436.195312 C 42.273438 437.800781 37.515625 439.390625 32.761719 440.980469 C 37.261719 436.871094 41.765625 432.746094 46.265625 428.632812 C 47.457031 427.546875 48.640625 426.457031 49.832031 425.367188 C 52.265625 424.78125 54.695312 424.179688 57.132812 423.578125 C 57.492188 423.496094 57.851562 423.398438 58.210938 423.320312 C 58.808594 423.160156 59.109375 422.4375 58.929688 421.890625 C 58.726562 421.28125 58.097656 421.035156 57.507812 421.175781 Z M 131.996094 284.171875 C 132.011719 283.429688 132.03125 282.707031 132.050781 281.984375 C 132.066406 281.417969 131.742188 280.875 131.195312 280.570312 C 130.6875 280.285156 130.117188 280.289062 129.671875 280.574219 C 126.851562 282.375 109.476562 295.300781 104.820312 300.230469 C 98.167969 307.28125 89.59375 318.484375 91.933594 334.191406 C 91.984375 334.550781 92.070312 334.886719 92.171875 335.207031 C 92.523438 336.246094 93.160156 337.0625 94.078125 337.605469 C 96.730469 339.203125 100.824219 338.070312 104.089844 336.90625 L 104.332031 336.816406 C 108.996094 335.171875 112.347656 332.523438 115.9375 329.054688 C 122.125 323.0625 126.574219 316.046875 129.144531 308.203125 C 129.339844 307.597656 129.535156 306.957031 129.714844 306.316406 L 129.707031 306.316406 C 131.617188 299.390625 131.804688 291.652344 131.996094 284.171875 Z M 55.15625 232.078125 C 55.492188 232.339844 55.835938 232.554688 56.175781 232.753906 C 57.320312 233.378906 58.527344 233.558594 59.753906 233.300781 C 63.316406 232.546875 65.929688 228.296875 67.800781 224.683594 L 67.945312 224.398438 C 70.636719 219.253906 71.386719 214.292969 71.683594 208.429688 C 72.199219 198.3125 70.382812 188.691406 66.289062 179.863281 C 65.972656 179.179688 65.625 178.488281 65.265625 177.796875 C 61.332031 170.296875 55.277344 163.46875 49.417969 156.875 C 48.851562 156.230469 48.285156 155.585938 47.714844 154.945312 C 47.277344 154.441406 46.558594 154.253906 45.847656 154.417969 C 45.175781 154.574219 44.691406 155.023438 44.539062 155.625 C 43.550781 159.425781 38.988281 184.5 38.949219 192.492188 C 38.894531 203.890625 40.519531 220.394531 55.15625 232.078125 Z M 114.460938 246.050781 C 106.21875 268.28125 95.519531 289.5625 84.058594 310.296875 C 71.203125 333.566406 57.242188 356.214844 43.050781 378.691406 C 41.039062 381.878906 39.011719 385.050781 36.984375 388.238281 C 26.300781 422.417969 15.484375 456.550781 4.921875 490.757812 C -7.078125 529.589844 -18.863281 568.511719 -29.199219 607.824219 C -36.941406 637.261719 -44.53125 667.21875 -47.542969 697.574219 C -47.820312 700.375 -52.089844 699.429688 -51.820312 696.65625 C -51.519531 693.65625 -51.164062 690.648438 -50.765625 687.652344 C -46.53125 655.996094 -38.402344 624.824219 -30.035156 594.054688 C -19.128906 553.945312 -6.953125 514.203125 5.390625 474.53125 C 12.890625 450.433594 20.46875 426.382812 28.019531 402.316406 C 18.210938 417.648438 8.363281 432.976562 -1.332031 448.386719 C -15.546875 470.980469 -29.5 493.792969 -42.304688 517.246094 C -47.707031 527.136719 -52.90625 537.152344 -57.765625 547.320312 C -57.417969 547.015625 -57.066406 546.710938 -56.71875 546.40625 C -54.75 544.695312 -52.78125 542.980469 -50.8125 541.269531 C -49.421875 536.398438 -47.566406 531.625 -45.621094 526.96875 C -45.113281 525.75 -43.277344 526.695312 -43.789062 527.914062 C -45.261719 531.453125 -46.683594 535.054688 -47.878906 538.703125 C -45.382812 536.535156 -42.890625 534.363281 -40.394531 532.179688 C -37.027344 529.25 -33.664062 526.316406 -30.296875 523.386719 C -30.246094 523.238281 -30.199219 523.105469 -30.15625 522.957031 C -29.535156 521.082031 -28.917969 519.191406 -28.296875 517.316406 C -28.113281 516.773438 -27.644531 516.367188 -27.023438 516.5 C -26.5 516.613281 -26.019531 517.222656 -26.195312 517.765625 C -26.285156 518.03125 -26.371094 518.300781 -26.460938 518.566406 C -26.902344 519.894531 -27.339844 521.222656 -27.773438 522.535156 C -25.683594 522.082031 -23.601562 521.625 -21.511719 521.171875 C -20.945312 521.042969 -20.351562 521.246094 -20.160156 521.84375 C -19.988281 522.351562 -20.273438 523.066406 -20.839844 523.199219 C -21.179688 523.265625 -21.527344 523.351562 -21.863281 523.421875 C -24.203125 523.933594 -26.542969 524.460938 -28.878906 524.972656 C -30.027344 525.972656 -31.175781 526.976562 -32.328125 527.976562 C -36.703125 531.785156 -41.078125 535.605469 -45.449219 539.414062 C -40.902344 538.015625 -36.355469 536.601562 -31.804688 535.203125 C -30.53125 534.8125 -29.886719 536.769531 -31.160156 537.160156 C -31.929688 537.40625 -32.695312 537.636719 -33.457031 537.871094 C -38.734375 539.507812 -44.011719 541.128906 -49.285156 542.75 C -52.480469 545.542969 -55.679688 548.320312 -58.875 551.113281 C -59.128906 551.34375 -59.414062 551.410156 -59.683594 551.382812 C -64.421875 561.558594 -68.800781 571.878906 -72.628906 582.40625 C -73.535156 584.917969 -77.214844 582.976562 -76.3125 580.496094 C -75.378906 577.914062 -74.40625 575.339844 -73.410156 572.789062 C -64.542969 550.152344 -53.40625 528.445312 -41.527344 507.261719 C -39.394531 503.453125 -37.214844 499.648438 -35.019531 495.851562 C -34.996094 495.589844 -34.96875 495.308594 -34.9375 495.03125 C -34.699219 492.523438 -34.460938 489.996094 -34.222656 487.488281 C -36.554688 483.003906 -38.484375 478.292969 -40.28125 473.574219 C -40.753906 472.335938 -38.792969 471.699219 -38.320312 472.9375 C -36.949219 476.535156 -35.503906 480.128906 -33.851562 483.628906 C -33.53125 480.253906 -33.210938 476.890625 -32.886719 473.515625 C -32.46875 469.148438 -32.050781 464.777344 -31.636719 460.410156 C -31.734375 460.199219 -31.835938 459.988281 -31.933594 459.777344 C -32.773438 457.984375 -33.621094 456.207031 -34.460938 454.414062 C -34.707031 453.886719 -34.277344 453.238281 -33.777344 453.074219 C -33.183594 452.871094 -32.671875 453.230469 -32.421875 453.742188 C -32.300781 454.007812 -32.179688 454.269531 -32.054688 454.535156 C -31.496094 455.710938 -30.941406 456.90625 -30.382812 458.085938 C -29.1875 456.332031 -27.992188 454.566406 -26.789062 452.800781 C -26.46875 452.316406 -25.914062 452.054688 -25.351562 452.347656 C -24.878906 452.59375 -24.566406 453.308594 -24.894531 453.789062 C -25.089844 454.082031 -25.289062 454.371094 -25.484375 454.660156 C -26.824219 456.632812 -28.171875 458.621094 -29.515625 460.59375 C -29.667969 462.207031 -29.816406 463.800781 -29.972656 465.394531 C -30.515625 471.082031 -31.0625 476.78125 -31.601562 482.484375 C -29.265625 478.335938 -26.933594 474.203125 -24.601562 470.070312 C -23.945312 468.914062 -22.113281 469.859375 -22.769531 471.015625 C -23.167969 471.722656 -23.558594 472.429688 -23.957031 473.117188 C -26.667969 477.929688 -29.375 482.722656 -32.085938 487.515625 C -32.210938 488.832031 -32.339844 490.148438 -32.464844 491.453125 C -21.984375 473.539062 -11.019531 455.921875 0.0820312 438.398438 C 10.914062 421.289062 21.886719 404.289062 32.75 387.203125 C 36.886719 373.972656 41.015625 360.742188 45.085938 347.496094 C 46.800781 341.90625 48.511719 336.3125 50.214844 330.730469 C 49.953125 329.460938 49.695312 328.1875 49.4375 326.914062 C 48.710938 323.390625 47.988281 319.886719 47.269531 316.367188 C 42.601562 311.558594 38.367188 306.273438 34.304688 300.960938 C 33.222656 299.542969 35.546875 298.066406 36.625 299.464844 C 39.675781 303.46875 42.828125 307.449219 46.207031 311.207031 C 45.289062 306.742188 44.371094 302.277344 43.449219 297.828125 C 42.210938 291.777344 40.964844 285.742188 39.726562 279.707031 C 37.847656 277.613281 35.976562 275.523438 34.097656 273.429688 C 33.578125 272.84375 33.441406 272.023438 34.007812 271.402344 C 34.492188 270.871094 35.519531 270.730469 36.03125 271.3125 L 40.347656 276.125 C 41.117188 273.238281 41.898438 270.339844 42.671875 267.453125 C 42.875 266.707031 43.582031 266.179688 44.375 266.347656 C 45.109375 266.507812 45.679688 267.308594 45.476562 268.054688 C 45.347656 268.535156 45.226562 268.996094 45.097656 269.476562 C 44.230469 272.6875 43.371094 275.902344 42.511719 279.101562 C 42.933594 281.167969 43.359375 283.234375 43.78125 285.300781 C 45.371094 293.007812 46.957031 300.710938 48.539062 308.417969 C 49.753906 301.960938 50.976562 295.488281 52.191406 289.03125 C 52.523438 287.28125 55.21875 287.875 54.890625 289.605469 C 54.683594 290.714844 54.480469 291.8125 54.269531 292.921875 C 52.847656 300.457031 51.421875 308.007812 50.007812 315.542969 L 51.953125 325.019531 C 61.371094 293.996094 70.472656 262.859375 78.570312 231.464844 C 85.824219 203.328125 92.988281 174.59375 95.511719 145.546875 L 95.019531 145.527344 C 94.648438 143.433594 77.449219 105.421875 77.449219 105.421875 C 77.449219 105.421875 92.839844 106.777344 99.300781 121.058594 C 99.816406 122.199219 100.210938 123.3125 100.515625 124.394531 C 101.121094 123.449219 101.8125 122.5 102.640625 121.550781 C 112.953125 109.753906 128.082031 112.914062 128.082031 112.914062 C 128.082031 112.914062 101.019531 143.785156 100.054688 145.6875 L 99.855469 145.679688 C 99.644531 148.242188 99.386719 150.804688 99.089844 153.351562 C 95.421875 184.375 87.566406 214.957031 79.511719 245.070312 C 68.863281 284.882812 56.84375 324.328125 44.648438 363.683594 C 43.683594 366.78125 42.707031 369.875 41.75 372.976562 C 42.632812 371.566406 43.527344 370.164062 44.410156 368.753906 C 58.351562 346.511719 71.992188 324.058594 84.433594 300.941406 C 94.382812 282.441406 103.667969 263.4375 110.90625 243.695312 L 110.320312 243.523438 C 110.472656 241.515625 103.550781 202.492188 103.550781 202.492188 C 103.550781 202.492188 117.410156 207.339844 120.011719 221.996094 C 120.222656 223.164062 120.320312 224.273438 120.34375 225.355469 C 121.125 224.621094 121.988281 223.90625 122.976562 223.230469 C 135.246094 214.777344 148.433594 221.21875 148.433594 221.21875 C 148.433594 221.21875 116.253906 243.324219 114.929688 244.839844 L 114.886719 244.832031 C 114.738281 245.242188 114.605469 245.65625 114.460938 246.050781 " fill-opacity="1" fill-rule="nonzero"/></g></g></g></g></g><g clip-path="url(#632df08cde)"><g clip-path="url(#4ee7151903)"><g clip-path="url(#b2c5bbe65e)"><g clip-path="url(#f84ebf1e82)"><path fill="#71a674" d="M 128.1875 295.097656 C 127.886719 294.625 127.324219 294.582031 126.867188 294.816406 C 125.160156 295.683594 123.457031 296.554688 121.757812 297.40625 C 121.832031 296.15625 121.914062 294.910156 121.996094 293.664062 C 122.015625 293.398438 122.03125 293.148438 122.046875 292.902344 C 122.078125 292.386719 121.503906 291.976562 121.035156 292.003906 C 120.464844 292.039062 120.167969 292.496094 120.136719 293.011719 C 120.019531 294.773438 119.90625 296.550781 119.789062 298.3125 L 119.765625 298.6875 C 115.839844 304.421875 111.914062 310.15625 107.980469 315.890625 C 108.195312 312.460938 108.621094 309.027344 109.105469 305.621094 C 109.273438 304.457031 107.472656 304.054688 107.304688 305.234375 C 106.671875 309.699219 106.136719 314.234375 106.019531 318.761719 C 104.714844 320.664062 103.402344 322.578125 102.09375 324.496094 C 101.25 325.722656 100.402344 326.964844 99.550781 328.203125 C 98.859375 329.210938 100.566406 330.082031 101.253906 329.089844 C 103.394531 325.960938 105.539062 322.832031 107.675781 319.699219 C 111.871094 317.121094 116.070312 314.527344 120.265625 311.945312 C 120.878906 311.570312 121.492188 311.195312 122.113281 310.808594 C 123.117188 310.183594 122.121094 308.644531 121.105469 309.265625 C 117.488281 311.492188 113.867188 313.722656 110.238281 315.964844 C 113.164062 311.691406 116.085938 307.429688 119.007812 303.15625 C 119.785156 302.027344 120.566406 300.882812 121.34375 299.75 C 123.25 298.785156 125.167969 297.820312 127.078125 296.835938 C 127.351562 296.707031 127.625 296.558594 127.90625 296.414062 C 128.367188 296.179688 128.445312 295.503906 128.1875 295.097656 Z M 59.109375 220.4375 C 59.328125 221.875 57.074219 221.992188 56.859375 220.570312 C 56.59375 218.855469 56.332031 217.140625 56.078125 215.410156 C 55.671875 212.761719 55.273438 210.117188 54.867188 207.484375 C 51.347656 203.507812 48.167969 199.191406 45.128906 194.839844 C 44.328125 193.691406 46.152344 192.515625 46.949219 193.664062 C 49.269531 196.992188 51.675781 200.304688 54.253906 203.449219 C 53.722656 199.9375 53.1875 196.421875 52.652344 192.894531 C 51.960938 188.335938 51.261719 183.761719 50.566406 179.183594 C 49.101562 177.386719 47.628906 175.585938 46.15625 173.785156 C 45.765625 173.320312 46.023438 172.539062 46.488281 172.242188 C 47.039062 171.886719 47.664062 172.097656 48.050781 172.578125 C 49.121094 173.882812 50.1875 175.183594 51.253906 176.488281 C 52.058594 174.289062 52.859375 172.105469 53.65625 169.90625 C 53.867188 169.332031 54.691406 169.179688 55.175781 169.4375 C 55.765625 169.738281 55.863281 170.378906 55.65625 170.949219 C 55.53125 171.300781 55.410156 171.640625 55.28125 171.976562 C 54.453125 174.265625 53.617188 176.535156 52.78125 178.824219 C 53.035156 180.472656 53.292969 182.140625 53.542969 183.804688 C 54.449219 189.769531 55.351562 195.730469 56.257812 201.695312 C 57.578125 196.890625 58.902344 192.066406 60.21875 187.257812 C 60.585938 185.929688 62.710938 186.371094 62.34375 187.714844 L 61.667969 190.175781 C 60.128906 195.777344 58.597656 201.375 57.058594 206.972656 C 57.742188 211.464844 58.429688 215.945312 59.109375 220.4375 " fill-opacity="1" fill-rule="nonzero"/></g></g></g></g></svg>