<svg xmlns="http://www.w3.org/2000/svg" xmlns:xlink="http://www.w3.org/1999/xlink" width="480" zoomAndPan="magnify" viewBox="0 0 360 503.999982" height="672" preserveAspectRatio="xMidYMid meet" version="1.0"><defs><clipPath id="45998143c2"><path d="M 187 11 L 307 11 L 307 219 L 187 219 Z M 187 11 " clip-rule="nonzero"/></clipPath><clipPath id="61b692992d"><path d="M 154.257812 29.277344 L 318.152344 -4.050781 L 459.691406 691.953125 L 295.792969 725.28125 Z M 154.257812 29.277344 " clip-rule="nonzero"/></clipPath><clipPath id="5881db8a06"><path d="M 317.867188 -3.992188 L 153.96875 29.335938 L 295.507812 725.339844 L 459.402344 692.011719 Z M 317.867188 -3.992188 " clip-rule="nonzero"/></clipPath><clipPath id="9aa5c3754b"><path d="M 317.867188 -3.992188 L 153.96875 29.335938 L 295.507812 725.339844 L 459.402344 692.011719 Z M 317.867188 -3.992188 " clip-rule="nonzero"/></clipPath><clipPath id="aaa3794b99"><path d="M 296.328125 0.386719 L 154.253906 29.277344 L 193.992188 224.675781 L 336.066406 195.78125 Z M 296.328125 0.386719 " clip-rule="nonzero"/></clipPath><clipPath id="29e329fc7a"><path d="M 212 42 L 272 42 L 272 191 L 212 191 Z M 212 42 " clip-rule="nonzero"/></clipPath><clipPath id="f8d8368c9a"><path d="M 154.257812 29.277344 L 318.152344 -4.050781 L 459.691406 691.953125 L 295.792969 725.28125 Z M 154.257812 29.277344 " clip-rule="nonzero"/></clipPath><clipPath id="760ff10d6e"><path d="M 317.867188 -3.992188 L 153.96875 29.335938 L 295.507812 725.339844 L 459.402344 692.011719 Z M 317.867188 -3.992188 " clip-rule="nonzero"/></clipPath><clipPath id="d9e787679d"><path d="M 317.867188 -3.992188 L 153.96875 29.335938 L 295.507812 725.339844 L 459.402344 692.011719 Z M 317.867188 -3.992188 " clip-rule="nonzero"/></clipPath><clipPath id="0ad42399a1"><path d="M 215 107 L 360 107 L 360 504 L 215 504 Z M 215 107 " clip-rule="nonzero"/></clipPath><clipPath id="6a94342423"><path d="M 154.257812 29.277344 L 318.152344 -4.050781 L 459.691406 691.953125 L 295.792969 725.28125 Z M 154.257812 29.277344 " clip-rule="nonzero"/></clipPath><clipPath id="8e86d09afa"><path d="M 317.867188 -3.992188 L 153.96875 29.335938 L 295.507812 725.339844 L 459.402344 692.011719 Z M 317.867188 -3.992188 " clip-rule="nonzero"/></clipPath><clipPath id="3aa44682a3"><path d="M 317.867188 -3.992188 L 153.96875 29.335938 L 295.507812 725.339844 L 459.402344 692.011719 Z M 317.867188 -3.992188 " clip-rule="nonzero"/></clipPath><clipPath id="771e81aa0c"><path d="M 337.292969 93.003906 L 194.613281 122.019531 L 316.433594 721.070312 L 459.113281 692.054688 Z M 337.292969 93.003906 " clip-rule="nonzero"/></clipPath><clipPath id="5fa1f8d0be"><path d="M 235 171 L 320 171 L 320 331 L 235 331 Z M 235 171 " clip-rule="nonzero"/></clipPath><clipPath id="6a9d402ec9"><path d="M 154.257812 29.277344 L 318.152344 -4.050781 L 459.691406 691.953125 L 295.792969 725.28125 Z M 154.257812 29.277344 " clip-rule="nonzero"/></clipPath><clipPath id="1d768955ea"><path d="M 317.867188 -3.992188 L 153.96875 29.335938 L 295.507812 725.339844 L 459.402344 692.011719 Z M 317.867188 -3.992188 " clip-rule="nonzero"/></clipPath><clipPath id="e9d5652fcc"><path d="M 317.867188 -3.992188 L 153.96875 29.335938 L 295.507812 725.339844 L 459.402344 692.011719 Z M 317.867188 -3.992188 " clip-rule="nonzero"/></clipPath></defs><g clip-path="url(#45998143c2)"><g clip-path="url(#61b692992d)"><g clip-path="url(#5881db8a06)"><g clip-path="url(#9aa5c3754b)"><g clip-path="url(#aaa3794b99)"><path fill="#e6b366" d="M 188.390625 192.152344 C 188.878906 190.824219 189.671875 189.605469 190.496094 188.445312 C 190.703125 188.132812 190.925781 187.835938 191.007812 187.472656 C 191.492188 185.417969 189.199219 183.863281 190.488281 181.566406 C 191.378906 179.96875 193.332031 179.144531 194.980469 178.621094 C 198.679688 177.433594 202.777344 177.253906 206.632812 177.339844 C 209.066406 177.378906 211.457031 177.554688 213.546875 177.746094 C 211.492188 176.933594 209.222656 175.976562 206.929688 174.914062 C 197.34375 170.4375 192.136719 166.191406 191.453125 162.292969 C 190.945312 159.324219 193.011719 157.546875 195.777344 157.050781 C 197.183594 156.804688 198.621094 156.878906 200.042969 157.011719 C 200.414062 157.046875 200.796875 157.078125 201.152344 156.96875 C 203.175781 156.347656 203.371094 153.605469 206.007812 153.5625 C 207.847656 153.53125 209.523438 154.804688 210.808594 155.972656 C 213.683594 158.582031 215.882812 162.027344 217.742188 165.402344 C 218.914062 167.535156 219.957031 169.675781 220.832031 171.582031 C 220.515625 169.398438 220.210938 166.957031 219.992188 164.445312 C 219.09375 153.917969 220.171875 147.292969 223.214844 144.75 C 225.539062 142.816406 228.105469 143.71875 229.921875 145.863281 C 230.839844 146.953125 231.488281 148.230469 232.085938 149.527344 C 232.242188 149.867188 232.402344 150.214844 232.675781 150.464844 C 234.222656 151.902344 236.699219 150.695312 238.054688 152.957031 C 239 154.535156 238.730469 156.617188 238.359375 158.3125 C 237.53125 162.105469 235.640625 165.730469 233.640625 169.027344 C 232.371094 171.105469 231.042969 173.085938 229.820312 174.800781 C 231.558594 173.421875 233.523438 171.933594 235.597656 170.503906 C 244.28125 164.441406 250.570312 162.058594 254.296875 163.417969 C 257.132812 164.457031 257.632812 167.125 256.675781 169.765625 C 256.195312 171.109375 255.402344 172.3125 254.574219 173.472656 C 254.363281 173.785156 254.140625 174.097656 254.054688 174.460938 C 253.582031 176.511719 255.871094 178.050781 254.578125 180.347656 C 253.691406 181.964844 251.75 182.769531 250.085938 183.296875 C 246.386719 184.476562 242.296875 184.660156 238.433594 184.578125 C 235.996094 184.523438 233.617188 184.359375 231.523438 184.171875 C 233.582031 184.980469 235.851562 185.941406 238.136719 187.003906 C 247.730469 191.488281 252.933594 195.730469 253.617188 199.628906 C 254.128906 202.601562 252.058594 204.363281 249.289062 204.863281 C 247.890625 205.117188 246.445312 205.03125 245.03125 204.910156 C 244.65625 204.875 244.277344 204.84375 243.914062 204.945312 C 241.898438 205.5625 241.699219 208.316406 239.058594 208.347656 C 237.226562 208.390625 235.554688 207.121094 234.257812 205.949219 C 231.390625 203.347656 229.1875 199.898438 227.335938 196.519531 C 226.160156 194.394531 225.113281 192.242188 224.238281 190.335938 C 224.558594 192.527344 224.863281 194.957031 225.074219 197.46875 C 225.980469 207.996094 224.898438 214.632812 221.855469 217.179688 C 219.535156 219.101562 216.964844 218.203125 215.15625 216.0625 C 214.238281 214.972656 213.585938 213.6875 212.984375 212.390625 C 212.828125 212.058594 212.671875 211.710938 212.398438 211.453125 C 210.851562 210.015625 208.367188 211.214844 207.015625 208.964844 C 206.070312 207.390625 206.335938 205.300781 206.707031 203.601562 C 207.539062 199.820312 209.429688 196.1875 211.433594 192.894531 C 212.699219 190.820312 214.027344 188.832031 215.25 187.132812 C 213.507812 188.496094 211.546875 189.984375 209.476562 191.429688 C 200.796875 197.484375 194.496094 199.871094 190.769531 198.5 C 187.9375 197.464844 187.441406 194.789062 188.390625 192.152344 Z M 237.363281 94.933594 C 242.242188 93.820312 247.265625 86.980469 252.292969 74.621094 C 253.492188 71.675781 254.546875 68.753906 255.441406 66.113281 C 255.332031 68.753906 255.277344 71.765625 255.375 74.828125 C 255.519531 79.691406 256.015625 84.828125 257.757812 89.402344 C 258.53125 91.449219 259.683594 93.839844 261.761719 94.859375 C 264.757812 96.320312 266.554688 93.34375 269.179688 93.796875 C 269.644531 93.871094 270.054688 94.132812 270.453125 94.386719 C 271.972656 95.34375 273.550781 96.257812 275.273438 96.777344 C 278.660156 97.800781 282.007812 96.988281 283.128906 93.355469 C 284.601562 88.574219 281.183594 80.824219 272.976562 70.304688 C 271.015625 67.800781 269.015625 65.429688 267.171875 63.339844 C 269.410156 64.753906 271.988281 66.296875 274.703125 67.75 C 278.992188 70.042969 283.695312 72.179688 288.53125 72.964844 C 290.707031 73.316406 293.351562 73.511719 295.28125 72.21875 C 298.042969 70.363281 296.359375 67.324219 298.066406 65.28125 C 298.371094 64.925781 298.804688 64.695312 299.21875 64.476562 C 300.8125 63.640625 302.390625 62.734375 303.703125 61.503906 C 306.292969 59.089844 307.261719 55.789062 304.671875 53.003906 C 301.265625 49.347656 292.824219 48.425781 279.59375 50.277344 C 276.433594 50.71875 273.378906 51.265625 270.636719 51.816406 C 272.984375 50.585938 275.621094 49.125 278.230469 47.503906 C 282.378906 44.941406 286.585938 41.945312 289.6875 38.152344 C 291.082031 36.453125 292.574219 34.261719 292.421875 31.957031 C 292.195312 28.632812 288.710938 28.570312 287.796875 26.078125 C 287.632812 25.636719 287.652344 25.152344 287.671875 24.679688 C 287.742188 22.882812 287.75 21.070312 287.34375 19.320312 C 286.539062 15.878906 284.160156 13.390625 280.445312 14.238281 C 275.566406 15.355469 270.546875 22.191406 265.519531 34.558594 C 264.324219 37.503906 263.269531 40.417969 262.375 43.066406 C 262.484375 40.417969 262.53125 37.414062 262.441406 34.34375 C 262.285156 29.484375 261.789062 24.347656 260.058594 19.777344 C 259.277344 17.726562 258.132812 15.339844 256.046875 14.320312 C 253.058594 12.859375 251.253906 15.835938 248.632812 15.378906 C 248.164062 15.300781 247.757812 15.039062 247.355469 14.789062 C 245.835938 13.835938 244.265625 12.921875 242.542969 12.402344 C 239.148438 11.378906 235.804688 12.191406 234.679688 15.824219 C 233.207031 20.597656 236.625 28.351562 244.839844 38.867188 C 246.792969 41.378906 248.800781 43.742188 250.644531 45.839844 C 248.398438 44.421875 245.820312 42.878906 243.109375 41.425781 C 238.816406 39.128906 234.113281 36.996094 229.273438 36.210938 C 227.105469 35.863281 224.457031 35.664062 222.535156 36.953125 C 219.761719 38.808594 221.449219 41.851562 219.742188 43.890625 C 219.4375 44.253906 219.007812 44.476562 218.589844 44.699219 C 217 45.535156 215.417969 46.441406 214.105469 47.667969 C 211.519531 50.09375 210.542969 53.382812 213.136719 56.171875 C 216.550781 59.832031 224.984375 60.75 238.222656 58.898438 C 241.375 58.460938 244.4375 57.914062 247.179688 57.363281 C 244.824219 58.59375 242.191406 60.054688 239.578125 61.667969 C 235.4375 64.238281 231.230469 67.230469 228.125 71.023438 C 226.734375 72.722656 225.234375 74.914062 225.386719 77.222656 C 225.617188 80.539062 229.101562 80.601562 230.019531 83.101562 C 230.175781 83.542969 230.15625 84.027344 230.136719 84.496094 C 230.066406 86.289062 230.058594 88.109375 230.472656 89.855469 C 231.277344 93.300781 233.648438 95.789062 237.363281 94.9375 " fill-opacity="1" fill-rule="nonzero"/></g></g></g></g></g><g clip-path="url(#29e329fc7a)"><g clip-path="url(#f8d8368c9a)"><g clip-path="url(#760ff10d6e)"><g clip-path="url(#d9e787679d)"><path fill="#7c484e" d="M 214.804688 175.046875 C 218.082031 170.785156 224.199219 169.980469 228.46875 173.246094 C 232.738281 176.511719 233.539062 182.609375 230.261719 186.871094 C 226.988281 191.132812 220.871094 191.9375 216.605469 188.671875 C 212.335938 185.40625 211.535156 179.308594 214.804688 175.046875 Z M 248.773438 47.648438 C 244.925781 53.238281 246.351562 60.875 251.945312 64.707031 C 257.539062 68.539062 265.195312 67.113281 269.035156 61.523438 C 272.882812 55.9375 271.460938 48.304688 265.863281 44.46875 C 260.269531 40.632812 252.617188 42.058594 248.773438 47.648438 " fill-opacity="1" fill-rule="nonzero"/></g></g></g></g><g clip-path="url(#0ad42399a1)"><g clip-path="url(#6a94342423)"><g clip-path="url(#8e86d09afa)"><g clip-path="url(#3aa44682a3)"><g clip-path="url(#771e81aa0c)"><path fill="#466f4f" d="M 334.660156 524.894531 C 336.84375 525.460938 339.03125 526.027344 341.21875 526.574219 C 340.804688 525.175781 340.398438 523.777344 339.988281 522.375 C 339.90625 522.09375 339.824219 521.8125 339.742188 521.527344 C 339.574219 520.945312 340.0625 520.3125 340.621094 520.199219 C 341.257812 520.066406 341.777344 520.484375 341.953125 521.078125 C 342.53125 523.074219 343.121094 525.085938 343.703125 527.078125 C 343.746094 527.226562 343.792969 527.390625 343.84375 527.554688 C 347.273438 530.753906 350.707031 533.953125 354.136719 537.148438 C 356.683594 539.535156 359.238281 541.917969 361.78125 544.285156 C 360.660156 540.414062 359.300781 536.589844 357.882812 532.824219 C 357.390625 531.535156 359.324219 530.542969 359.820312 531.847656 C 361.699219 536.828125 363.492188 541.921875 364.777344 547.085938 C 366.785156 548.964844 368.785156 550.828125 370.789062 552.691406 C 372.0625 553.882812 373.335938 555.078125 374.605469 556.253906 C 375.667969 557.25 373.976562 558.746094 372.925781 557.761719 C 369.65625 554.703125 366.378906 551.648438 363.109375 548.589844 C 357.621094 546.695312 352.144531 544.796875 346.65625 542.898438 C 345.867188 542.632812 345.070312 542.355469 344.28125 542.089844 C 342.960938 541.632812 343.65625 539.566406 344.980469 540.023438 C 349.722656 541.675781 354.460938 543.316406 359.199219 544.953125 C 354.742188 540.796875 350.285156 536.625 345.824219 532.46875 C 344.644531 531.367188 343.46875 530.265625 342.289062 529.164062 C 339.863281 528.554688 337.433594 527.929688 335 527.304688 C 334.648438 527.214844 334.289062 527.117188 333.933594 527.03125 C 333.339844 526.867188 333.042969 526.140625 333.226562 525.597656 C 333.4375 524.988281 334.066406 524.75 334.660156 524.894531 Z M 304.871094 423.046875 C 307.0625 423.613281 309.242188 424.179688 311.429688 424.726562 C 311.023438 423.328125 310.613281 421.925781 310.199219 420.527344 C 310.117188 420.246094 310.035156 419.964844 309.953125 419.679688 C 309.785156 419.097656 310.273438 418.464844 310.832031 418.351562 C 311.472656 418.21875 311.992188 418.648438 312.164062 419.230469 C 312.742188 421.226562 313.332031 423.234375 313.917969 425.230469 C 313.960938 425.378906 314.011719 425.542969 314.054688 425.691406 C 317.484375 428.90625 320.921875 432.101562 324.347656 435.300781 C 326.902344 437.683594 329.449219 440.070312 331.996094 442.453125 C 330.871094 438.566406 329.515625 434.742188 328.097656 430.992188 C 327.609375 429.6875 329.539062 428.695312 330.03125 429.996094 C 331.910156 434.980469 333.703125 440.070312 334.988281 445.234375 C 336.996094 447.117188 338.996094 448.980469 341.003906 450.84375 C 342.273438 452.035156 343.546875 453.226562 344.820312 454.40625 C 345.882812 455.402344 344.191406 456.898438 343.136719 455.914062 C 339.867188 452.855469 336.597656 449.800781 333.320312 446.742188 C 327.835938 444.847656 322.355469 442.949219 316.867188 441.050781 C 316.078125 440.785156 315.28125 440.503906 314.492188 440.242188 C 313.171875 439.785156 313.867188 437.71875 315.191406 438.175781 C 319.933594 439.828125 324.679688 441.464844 329.414062 443.105469 C 324.957031 438.949219 320.496094 434.777344 316.039062 430.621094 C 314.855469 429.519531 313.679688 428.417969 312.5 427.316406 C 310.074219 426.707031 307.648438 426.078125 305.21875 425.453125 C 304.863281 425.367188 304.503906 425.269531 304.144531 425.183594 C 303.550781 425.019531 303.253906 424.292969 303.441406 423.75 C 303.648438 423.140625 304.28125 422.898438 304.871094 423.046875 Z M 231.785156 285.289062 C 231.777344 284.546875 231.765625 283.824219 231.753906 283.101562 C 231.742188 282.535156 232.070312 281.996094 232.621094 281.695312 C 233.132812 281.417969 233.703125 281.425781 234.144531 281.714844 C 236.949219 283.542969 254.191406 296.644531 258.796875 301.625 C 265.375 308.742188 273.835938 320.035156 271.335938 335.714844 C 271.28125 336.074219 271.191406 336.40625 271.085938 336.730469 C 270.722656 337.765625 270.078125 338.574219 269.15625 339.109375 C 266.484375 340.675781 262.40625 339.503906 259.148438 338.304688 L 258.910156 338.210938 C 254.261719 336.523438 250.9375 333.839844 247.382812 330.335938 C 241.257812 324.277344 236.882812 317.21875 234.390625 309.347656 C 234.199219 308.738281 234.015625 308.101562 233.839844 307.457031 L 233.847656 307.457031 C 232.007812 300.511719 231.898438 292.773438 231.785156 285.289062 Z M 309.15625 233.984375 C 308.820312 234.242188 308.476562 234.453125 308.132812 234.648438 C 306.980469 235.261719 305.769531 235.429688 304.550781 235.15625 C 300.992188 234.367188 298.425781 230.09375 296.585938 226.460938 L 296.449219 226.175781 C 293.808594 221 293.109375 216.03125 292.871094 210.164062 C 292.460938 200.042969 294.375 190.441406 298.558594 181.65625 C 298.886719 180.976562 299.238281 180.289062 299.605469 179.601562 C 303.613281 172.144531 309.742188 165.378906 315.667969 158.839844 C 316.242188 158.203125 316.816406 157.566406 317.390625 156.929688 C 317.832031 156.429688 318.554688 156.25 319.261719 156.421875 C 319.929688 156.585938 320.414062 157.039062 320.558594 157.640625 C 321.507812 161.453125 325.8125 186.574219 325.773438 194.5625 C 325.707031 205.964844 323.914062 222.449219 309.15625 233.984375 Z M 249.710938 247.351562 C 257.726562 269.664062 268.207031 291.050781 279.453125 311.902344 C 292.074219 335.300781 305.804688 358.09375 319.761719 380.710938 C 321.742188 383.921875 323.738281 387.113281 325.730469 390.320312 C 336.066406 424.605469 346.53125 458.851562 356.746094 493.164062 C 368.34375 532.117188 379.730469 571.15625 389.667969 610.574219 C 397.105469 640.085938 404.386719 670.121094 407.089844 700.503906 C 407.339844 703.308594 411.621094 702.40625 411.375 699.632812 C 411.105469 696.628906 410.785156 693.617188 410.414062 690.617188 C 406.503906 658.917969 398.695312 627.667969 390.640625 596.8125 C 380.148438 556.59375 368.378906 516.730469 356.4375 476.933594 C 349.1875 452.757812 341.855469 428.632812 334.550781 404.488281 C 344.203125 419.921875 353.890625 435.351562 363.429688 450.855469 C 377.414062 473.597656 391.132812 496.550781 403.695312 520.132812 C 409 530.078125 414.09375 540.148438 418.851562 550.363281 C 418.507812 550.054688 418.160156 549.746094 417.8125 549.4375 C 415.859375 547.707031 413.910156 545.972656 411.957031 544.242188 C 410.621094 539.355469 408.8125 534.566406 406.914062 529.886719 C 406.421875 528.664062 404.574219 529.589844 405.074219 530.8125 C 406.511719 534.371094 407.894531 537.984375 409.054688 541.644531 C 406.582031 539.449219 404.109375 537.257812 401.636719 535.046875 C 398.296875 532.082031 394.964844 529.117188 391.625 526.152344 C 391.578125 526.003906 391.53125 525.871094 391.488281 525.722656 C 390.890625 523.839844 390.289062 521.941406 389.691406 520.0625 C 389.511719 519.515625 389.046875 519.105469 388.421875 519.230469 C 387.902344 519.335938 387.414062 519.941406 387.585938 520.488281 C 387.671875 520.757812 387.757812 521.023438 387.839844 521.289062 C 388.269531 522.621094 388.691406 523.957031 389.113281 525.273438 C 387.03125 524.796875 384.949219 524.320312 382.867188 523.847656 C 382.300781 523.710938 381.707031 523.910156 381.503906 524.503906 C 381.332031 525.011719 381.605469 525.726562 382.171875 525.867188 C 382.511719 525.9375 382.859375 526.027344 383.195312 526.097656 C 385.527344 526.632812 387.863281 527.183594 390.191406 527.71875 C 391.332031 528.734375 392.46875 529.75 393.613281 530.761719 C 397.949219 534.613281 402.285156 538.480469 406.617188 542.328125 C 402.082031 540.886719 397.550781 539.425781 393.015625 537.984375 C 391.746094 537.578125 391.082031 539.527344 392.347656 539.933594 C 393.117188 540.1875 393.882812 540.425781 394.640625 540.664062 C 399.898438 542.355469 405.160156 544.03125 410.417969 545.707031 C 413.582031 548.53125 416.753906 551.339844 419.921875 554.167969 C 420.175781 554.398438 420.460938 554.46875 420.726562 554.445312 C 425.363281 564.671875 429.636719 575.03125 433.355469 585.601562 C 434.238281 588.117188 437.9375 586.214844 437.0625 583.726562 C 436.152344 581.136719 435.207031 578.554688 434.234375 575.988281 C 425.597656 553.265625 414.683594 531.445312 403.023438 510.140625 C 400.929688 506.308594 398.789062 502.484375 396.632812 498.664062 C 396.609375 498.402344 396.585938 498.121094 396.558594 497.84375 C 396.34375 495.332031 396.132812 492.804688 395.917969 490.292969 C 398.296875 485.835938 400.277344 481.140625 402.125 476.445312 C 402.605469 475.210938 400.652344 474.550781 400.167969 475.785156 C 398.761719 479.367188 397.277344 482.949219 395.589844 486.433594 C 395.304688 483.050781 395.015625 479.6875 394.730469 476.308594 C 394.355469 471.933594 393.984375 467.5625 393.613281 463.191406 C 393.710938 462.980469 393.816406 462.769531 393.914062 462.558594 C 394.777344 460.777344 395.636719 459.007812 396.5 457.222656 C 396.75 456.699219 396.328125 456.042969 395.828125 455.878906 C 395.238281 455.667969 394.722656 456.023438 394.46875 456.53125 C 394.34375 456.796875 394.21875 457.058594 394.089844 457.320312 C 393.519531 458.492188 392.953125 459.679688 392.382812 460.851562 C 391.203125 459.089844 390.027344 457.308594 388.84375 455.53125 C 388.527344 455.042969 387.976562 454.777344 387.410156 455.066406 C 386.933594 455.304688 386.613281 456.015625 386.9375 456.503906 C 387.132812 456.792969 387.324219 457.085938 387.519531 457.378906 C 388.839844 459.367188 390.167969 461.367188 391.492188 463.351562 C 391.628906 464.964844 391.757812 466.5625 391.898438 468.160156 C 392.382812 473.851562 392.871094 479.554688 393.351562 485.261719 C 391.058594 481.089844 388.769531 476.933594 386.480469 472.78125 C 385.835938 471.617188 383.992188 472.542969 384.636719 473.707031 C 385.027344 474.414062 385.414062 475.125 385.800781 475.820312 C 388.464844 480.65625 391.125 485.480469 393.785156 490.300781 C 393.898438 491.617188 394.011719 492.9375 394.121094 494.238281 C 383.828125 476.222656 373.042969 458.492188 362.117188 440.855469 C 351.460938 423.636719 340.664062 406.527344 329.972656 389.332031 C 325.972656 376.058594 321.980469 362.785156 318.046875 349.5 C 316.386719 343.890625 314.734375 338.28125 313.089844 332.683594 C 313.363281 331.414062 313.632812 330.144531 313.90625 328.875 C 314.667969 325.359375 315.425781 321.859375 316.179688 318.347656 C 320.902344 313.585938 325.1875 308.34375 329.304688 303.074219 C 330.398438 301.667969 328.09375 300.167969 327 301.558594 C 323.90625 305.53125 320.710938 309.476562 317.296875 313.199219 C 318.261719 308.746094 319.226562 304.289062 320.195312 299.847656 C 321.492188 293.8125 322.800781 287.789062 324.097656 281.769531 C 326 279.695312 327.894531 277.621094 329.792969 275.546875 C 330.316406 274.964844 330.464844 274.148438 329.90625 273.519531 C 329.425781 272.988281 328.402344 272.832031 327.882812 273.410156 L 323.515625 278.179688 C 322.773438 275.285156 322.023438 272.378906 321.28125 269.484375 C 321.085938 268.738281 320.382812 268.199219 319.589844 268.363281 C 318.851562 268.511719 318.273438 269.308594 318.46875 270.058594 C 318.59375 270.535156 318.710938 271 318.832031 271.480469 C 319.667969 274.703125 320.496094 277.925781 321.320312 281.132812 C 320.875 283.195312 320.433594 285.257812 319.988281 287.320312 C 318.320312 295.007812 316.65625 302.699219 314.996094 310.386719 C 313.847656 303.917969 312.6875 297.433594 311.539062 290.960938 C 311.226562 289.210938 308.523438 289.777344 308.835938 291.511719 C 309.03125 292.625 309.222656 293.71875 309.421875 294.832031 C 310.765625 302.382812 312.113281 309.945312 313.453125 317.5 L 311.410156 326.953125 C 302.3125 295.835938 293.527344 264.609375 285.75 233.128906 C 278.785156 204.921875 271.914062 176.113281 269.6875 147.042969 L 270.179688 147.03125 C 270.574219 144.941406 288.160156 107.105469 288.160156 107.105469 C 288.160156 107.105469 272.757812 108.304688 266.152344 122.519531 C 265.625 123.65625 265.21875 124.761719 264.902344 125.839844 C 264.308594 124.890625 263.625 123.933594 262.808594 122.976562 C 252.613281 111.074219 237.453125 114.078125 237.453125 114.078125 C 237.453125 114.078125 264.199219 145.226562 265.144531 147.136719 L 265.34375 147.132812 C 265.53125 149.695312 265.761719 152.261719 266.03125 154.8125 C 269.378906 185.871094 276.921875 216.53125 284.667969 246.722656 C 294.910156 286.644531 306.523438 326.210938 318.320312 365.691406 C 319.253906 368.796875 320.195312 371.902344 321.121094 375.011719 C 320.253906 373.59375 319.375 372.179688 318.503906 370.761719 C 304.789062 348.378906 291.378906 325.789062 279.175781 302.542969 C 269.417969 283.945312 260.328125 264.84375 253.289062 245.03125 L 253.875 244.863281 C 253.742188 242.855469 261.066406 203.902344 261.066406 203.902344 C 261.066406 203.902344 247.15625 208.609375 244.40625 223.238281 C 244.183594 224.40625 244.074219 225.515625 244.039062 226.59375 C 243.265625 225.851562 242.410156 225.128906 241.429688 224.445312 C 229.246094 215.863281 215.992188 222.171875 215.992188 222.171875 C 215.992188 222.171875 247.945312 244.601562 249.253906 246.132812 L 249.296875 246.125 C 249.441406 246.539062 249.570312 246.953125 249.710938 247.351562 " fill-opacity="1" fill-rule="nonzero"/></g></g></g></g></g><g clip-path="url(#5fa1f8d0be)"><g clip-path="url(#6a9d402ec9)"><g clip-path="url(#1d768955ea)"><g clip-path="url(#e9d5652fcc)"><path fill="#71a674" d="M 235.484375 296.253906 C 235.789062 295.78125 236.351562 295.746094 236.804688 295.984375 C 238.503906 296.871094 240.195312 297.757812 241.886719 298.628906 C 241.824219 297.378906 241.757812 296.128906 241.6875 294.882812 C 241.671875 294.617188 241.65625 294.367188 241.644531 294.117188 C 241.617188 293.601562 242.199219 293.203125 242.667969 293.230469 C 243.238281 293.273438 243.527344 293.734375 243.554688 294.25 C 243.652344 296.011719 243.75 297.792969 243.847656 299.554688 L 243.867188 299.929688 C 247.734375 305.703125 251.601562 311.480469 255.472656 317.253906 C 255.292969 313.820312 254.902344 310.382812 254.457031 306.972656 C 254.300781 305.804688 256.105469 305.421875 256.261719 306.605469 C 256.847656 311.074219 257.339844 315.613281 257.40625 320.140625 C 258.691406 322.054688 259.984375 323.984375 261.273438 325.917969 C 262.105469 327.152344 262.941406 328.402344 263.78125 329.648438 C 264.460938 330.664062 262.746094 331.515625 262.070312 330.519531 C 259.957031 327.367188 257.847656 324.214844 255.742188 321.0625 C 251.574219 318.441406 247.398438 315.804688 243.230469 313.183594 C 242.621094 312.800781 242.011719 312.417969 241.394531 312.023438 C 240.398438 311.390625 241.410156 309.859375 242.417969 310.492188 C 246.015625 312.757812 249.613281 315.023438 253.21875 317.300781 C 250.335938 313 247.457031 308.710938 244.582031 304.40625 C 243.8125 303.269531 243.042969 302.117188 242.28125 300.976562 C 240.382812 299.992188 238.476562 299.007812 236.574219 298.003906 C 236.300781 297.871094 236.03125 297.722656 235.75 297.574219 C 235.289062 297.335938 235.21875 296.65625 235.484375 296.253906 Z M 305.324219 222.300781 C 305.09375 223.738281 307.34375 223.878906 307.574219 222.460938 C 307.855469 220.746094 308.136719 219.035156 308.410156 217.304688 C 308.839844 214.664062 309.265625 212.019531 309.699219 209.394531 C 313.257812 205.453125 316.480469 201.167969 319.566406 196.851562 C 320.378906 195.707031 318.566406 194.515625 317.757812 195.65625 C 315.402344 198.957031 312.964844 202.246094 310.351562 205.363281 C 310.921875 201.859375 311.492188 198.351562 312.0625 194.828125 C 312.804688 190.277344 313.546875 185.707031 314.292969 181.140625 C 315.773438 179.355469 317.265625 177.570312 318.753906 175.785156 C 319.148438 175.324219 318.902344 174.539062 318.441406 174.238281 C 317.890625 173.878906 317.265625 174.085938 316.875 174.558594 C 315.789062 175.851562 314.707031 177.144531 313.632812 178.433594 C 312.847656 176.226562 312.070312 174.035156 311.292969 171.828125 C 311.089844 171.253906 310.265625 171.089844 309.78125 171.347656 C 309.1875 171.640625 309.082031 172.277344 309.285156 172.851562 C 309.40625 173.207031 309.523438 173.542969 309.648438 173.882812 C 310.453125 176.179688 311.265625 178.460938 312.078125 180.753906 C 311.808594 182.402344 311.535156 184.066406 311.265625 185.730469 C 310.300781 191.683594 309.335938 197.636719 308.367188 203.589844 C 307.097656 198.769531 305.824219 193.933594 304.554688 189.113281 C 304.203125 187.78125 302.070312 188.199219 302.425781 189.546875 L 303.074219 192.019531 C 304.554688 197.632812 306.03125 203.246094 307.511719 208.859375 C 306.78125 213.347656 306.050781 217.816406 305.324219 222.300781 " fill-opacity="1" fill-rule="nonzero"/></g></g></g></g></svg>